<svg width="16" height="17" viewBox="0 0 16 17" fill="none" xmlns="http://www.w3.org/2000/svg">
<g opacity="0.5">
<path d="M3.68138 2.05903C3.68382 2.05702 3.68633 2.05509 3.68891 2.05323L3.76358 1.99936L3.76518 1.99821L3.76518 1.99822C4.47108 1.50295 5.42711 1.24218 6.23164 1.39222C6.4254 1.42832 6.61223 1.53534 6.78634 1.68177C6.9614 1.829 7.13161 2.0228 7.29254 2.24563C7.61439 2.6913 7.90902 3.26696 8.13709 3.85833C8.36512 4.4496 8.52968 5.0645 8.58676 5.59032C8.61529 5.85311 8.61755 6.09874 8.5849 6.31044C8.55252 6.52041 8.48363 6.71085 8.3578 6.84782L8.35775 6.84787C8.19797 7.02165 7.9274 7.17336 7.52005 7.36618L7.51917 7.3666L7.35703 7.44206L7.35551 7.44277L7.35551 7.44277L7.14484 7.53797L7.14422 7.53825C7.06962 7.57155 6.99746 7.60371 6.92162 7.63621L6.92156 7.63624L6.69318 7.734C6.84061 8.10139 7.0527 8.52926 7.2898 8.9301C7.28988 8.93024 7.28996 8.93037 7.29004 8.9305L7.34563 9.02333C7.34573 9.02349 7.34582 9.02365 7.34592 9.02381C7.53825 9.34001 7.72623 9.60414 7.882 9.77993L7.8823 9.78026C7.89094 9.79008 7.89971 9.7998 7.90857 9.80942C8.10075 9.71441 8.21707 9.65802 8.35497 9.59382L8.35551 9.59357L8.49791 9.52797L8.49877 9.52757C8.56191 9.49897 8.6235 9.47169 8.68353 9.44573L8.68362 9.44569C9.25176 9.20042 9.67592 9.06517 10.0442 9.13123L10.0444 9.13126C10.3723 9.19042 10.7062 9.41876 11.015 9.72247C11.3273 10.0297 11.6301 10.4299 11.8947 10.8621C12.1595 11.2946 12.3887 11.7633 12.552 12.2096C12.7145 12.6537 12.8153 13.0852 12.8152 13.4407L3.68138 2.05903ZM3.68138 2.05903C1.46207 3.72092 1.23232 7.31205 3.14436 10.8594L3.14437 10.8594C5.01732 14.3335 8.02037 16.2344 11.1601 15.2649M3.68138 2.05903L12.8152 13.4408C12.8152 13.8724 12.6005 14.2672 12.2942 14.58C11.9873 14.8933 11.578 15.1359 11.1601 15.2649M11.1601 15.2649L11.1159 15.1215M11.1601 15.2649L11.1159 15.1215M11.1159 15.1215C11.9065 14.8775 12.6652 14.2018 12.6652 13.4407L11.1159 15.1215ZM8.43277 11.0749L8.8055 10.8924C8.80573 10.8923 8.80596 10.8922 8.80619 10.8921C8.86335 10.8648 8.91666 10.8395 8.97606 10.8121C8.9762 10.8121 8.97634 10.812 8.97648 10.8119L9.14457 10.7357L9.14631 10.735L9.22617 10.7L9.22693 10.6997C9.38373 10.63 9.54432 10.5691 9.70792 10.5174L9.76332 10.5019C9.76357 10.5019 9.76383 10.5018 9.76408 10.5017C9.79068 10.4947 9.8124 10.4895 9.83011 10.4852C9.83027 10.4852 9.83043 10.4852 9.83059 10.4851C9.86133 10.4976 9.90534 10.5234 9.96263 10.5705C10.0377 10.6322 10.1231 10.7199 10.2151 10.8301C10.3988 11.0501 10.5985 11.3473 10.7835 11.6711C10.9682 11.9946 11.136 12.3407 11.257 12.6571C11.3796 12.9776 11.4486 13.253 11.4485 13.4407V13.4407C11.4485 13.4403 11.4485 13.4405 11.4483 13.4413C11.4471 13.4458 11.4406 13.4702 11.4078 13.5159C11.3728 13.5645 11.3194 13.6214 11.2509 13.6796C11.1133 13.7967 10.9315 13.9053 10.7569 13.9593C8.38877 14.6904 5.97359 13.2273 4.34737 10.2106L4.34737 10.2106C3.52086 8.67763 3.16701 7.19927 3.21824 5.96041C3.26948 4.72135 3.72433 3.73217 4.50451 3.15003L4.50453 3.15001C4.93505 2.82862 5.54729 2.65955 5.97057 2.73375C5.97365 2.73581 5.9789 2.73958 5.98644 2.74597C6.00662 2.76308 6.03368 2.79075 6.06701 2.83084C6.13334 2.91063 6.21461 3.02758 6.30403 3.17625C6.48243 3.47287 6.6861 3.88371 6.86112 4.3478L6.86113 4.34785C7.03654 4.81254 7.16808 5.27837 7.229 5.64155L7.23952 5.7057C7.23953 5.70575 7.23953 5.7058 7.23954 5.70585C7.2533 5.79116 7.26161 5.87725 7.26443 5.96358L7.23738 5.97867C7.12382 6.0403 6.97162 6.11504 6.7858 6.20045C6.78561 6.20054 6.78542 6.20062 6.78523 6.20071L6.47824 6.33859C6.47805 6.33868 6.47786 6.33876 6.47767 6.33884C6.36891 6.38659 6.25926 6.43426 6.12504 6.49118L6.12487 6.49125L5.6342 6.70005L5.63417 6.69997L5.62945 6.70217L5.59225 6.71955C5.57311 6.71723 5.55168 6.7182 5.52863 6.72487C5.47812 6.73948 5.44941 6.77401 5.43813 6.78884C5.41472 6.81961 5.39608 6.86233 5.37977 6.90248C5.34371 6.99123 5.28711 7.15198 5.19064 7.42598L5.19012 7.42746C5.18062 7.45442 5.17903 7.48354 5.18553 7.51138C5.35263 8.22708 5.7848 9.15342 6.2795 9.90052C6.52724 10.2747 6.79476 10.6101 7.05814 10.8541C7.3149 11.0919 7.59457 11.2679 7.8647 11.2683C7.87028 11.2683 7.87586 11.268 7.88142 11.2674L7.98515 11.256L7.98515 11.256L7.98661 11.2558C8.01276 11.2526 8.03353 11.2491 8.05512 11.2431L8.05522 11.2435L8.06525 11.2399L8.13618 11.2145L8.13629 11.2148L8.14526 11.211L8.20633 11.1846L8.20638 11.1847L8.21224 11.1818L8.43224 11.0752L8.43277 11.0749ZM9.8021 10.4764C9.80229 10.4764 9.80248 10.4764 9.80267 10.4765L9.79337 10.4745C9.79624 10.4752 9.79915 10.4758 9.8021 10.4764Z" fill="#F8FFFA" stroke="#F8FFFA" stroke-width="0.3" stroke-linejoin="round"/>
<path d="M15.0637 7.32267L15.0637 7.32266C15.0161 7.45365 14.8708 7.52066 14.7403 7.47182L14.7929 7.33133L14.7403 7.47182L14.3335 7.31955C13.9773 7.18626 13.8163 6.79827 13.8972 6.45155C14.1627 5.31423 13.8477 4.25038 12.9711 3.49805C12.8711 3.41361 12.8572 3.26447 12.94 3.16291M15.0637 7.32267L12.94 3.16291M15.0637 7.32267L15.0641 7.32138C15.6485 5.66544 15.3512 3.97643 14.1771 2.75869C13.9004 2.47176 13.4549 2.53154 13.2188 2.82099L12.94 3.16291M15.0637 7.32267L12.94 3.16291" fill="#F8FFFA" stroke="#F8FFFA" stroke-width="0.3"/>
<path d="M12.0637 8.32267L12.0637 8.32266C12.0161 8.45365 11.8708 8.52066 11.7403 8.47182L11.7929 8.33133L11.7403 8.47182L11.3335 8.31955C10.9773 8.18626 10.8163 7.79827 10.8972 7.45155C11.1627 6.31423 10.8477 5.25038 9.97115 4.49805C9.87113 4.41361 9.85716 4.26447 9.93999 4.16291M12.0637 8.32267L9.93999 4.16291M12.0637 8.32267L12.0641 8.32138C12.6485 6.66544 12.3512 4.97643 11.1771 3.75869C10.9004 3.47176 10.4549 3.53154 10.2188 3.82099L9.93999 4.16291M12.0637 8.32267L9.93999 4.16291" fill="#F8FFFA" stroke="#F8FFFA" stroke-width="0.3"/>
</g>
</svg>
