<svg width="24" height="24" viewBox="0 0 24 24" fill="none" xmlns="http://www.w3.org/2000/svg">
<path d="M18.9569 5.28696C18.9513 5.27619 18.9421 5.26775 18.9309 5.26315C17.6342 4.66821 16.2658 4.24396 14.8599 4.00104C14.8472 3.99867 14.834 4.00038 14.8222 4.00594C14.8105 4.01149 14.8008 4.02061 14.7945 4.03199C14.6082 4.37019 14.439 4.71757 14.2877 5.07281C12.7723 4.84277 11.2308 4.84277 9.7154 5.07281C9.56307 4.71667 9.39121 4.3692 9.2006 4.03199C9.19406 4.02086 9.18432 4.01195 9.17265 4.00643C9.16098 4.00091 9.14791 3.99903 9.13516 4.00104C7.72916 4.24345 6.36067 4.66773 5.06412 5.26319C5.05302 5.26789 5.04366 5.27593 5.03732 5.28618C2.44449 9.15824 1.73421 12.9351 2.08265 16.6652C2.08363 16.6743 2.08644 16.6832 2.09091 16.6912C2.09538 16.6992 2.10142 16.7063 2.10867 16.7119C3.61845 17.8298 5.30716 18.6831 7.10273 19.2354C7.11538 19.2392 7.12888 19.239 7.14143 19.2349C7.15397 19.2308 7.16496 19.2229 7.1729 19.2124C7.55855 18.6877 7.90027 18.132 8.19457 17.5511C8.19862 17.5431 8.20093 17.5344 8.20135 17.5255C8.20177 17.5165 8.2003 17.5076 8.19702 17.4993C8.19375 17.491 8.18875 17.4834 8.18235 17.4772C8.17595 17.471 8.16831 17.4661 8.15991 17.4631C7.62106 17.2569 7.09938 17.0083 6.59977 16.7198C6.5907 16.7144 6.58308 16.7069 6.57758 16.698C6.57208 16.689 6.56888 16.6788 6.56826 16.6683C6.56764 16.6578 6.56962 16.6473 6.57401 16.6377C6.57841 16.6281 6.5851 16.6198 6.59348 16.6134C6.69861 16.5349 6.80191 16.454 6.90331 16.3707C6.91221 16.3634 6.92297 16.3587 6.93438 16.3571C6.9458 16.3556 6.95742 16.3573 6.96794 16.362C10.241 17.8558 13.7846 17.8558 17.019 16.362C17.0295 16.357 17.0413 16.355 17.0529 16.3564C17.0644 16.3579 17.0754 16.3625 17.0844 16.3699C17.1859 16.4536 17.2895 16.5348 17.395 16.6134C17.4035 16.6197 17.4102 16.628 17.4147 16.6375C17.4192 16.6471 17.4212 16.6576 17.4207 16.6681C17.4201 16.6786 17.417 16.6888 17.4116 16.6978C17.4061 16.7068 17.3986 16.7144 17.3895 16.7198C16.8911 17.0108 16.3689 17.2592 15.8286 17.4623C15.8203 17.4655 15.8126 17.4704 15.8063 17.4767C15.7999 17.4831 15.795 17.4907 15.7918 17.4991C15.7886 17.5075 15.7872 17.5164 15.7877 17.5254C15.7881 17.5344 15.7905 17.5431 15.7946 17.5511C16.0939 18.1288 16.4351 18.6837 16.8155 19.2115C16.8232 19.2223 16.8342 19.2304 16.8468 19.2347C16.8594 19.239 16.873 19.2392 16.8857 19.2353C18.6845 18.6849 20.3761 17.8315 21.8878 16.7119C21.8952 16.7066 21.9013 16.6997 21.9058 16.6918C21.9103 16.6838 21.913 16.675 21.9138 16.666C22.331 12.3536 21.2155 8.60769 18.9569 5.28696ZM8.68339 14.3939C7.69794 14.3939 6.88597 13.4896 6.88597 12.379C6.88597 11.2684 7.68219 10.364 8.68339 10.364C9.6924 10.364 10.4965 11.2762 10.4808 12.3789C10.4808 13.4896 9.68451 14.3939 8.68339 14.3939ZM15.329 14.3939C14.3436 14.3939 13.5316 13.4896 13.5316 12.379C13.5316 11.2684 14.3278 10.364 15.329 10.364C16.3381 10.364 17.1422 11.2762 17.1264 12.3789C17.1264 13.4896 16.3381 14.3939 15.329 14.3939Z" fill="white"/>
</svg>
