<svg width="16" height="17" viewBox="0 0 16 17" fill="none" xmlns="http://www.w3.org/2000/svg">
<g opacity="0.5">
<path d="M13.7603 3.27988H2.24027C1.95914 3.27988 1.68953 3.39156 1.49074 3.59035C1.29195 3.78914 1.18027 4.05875 1.18027 4.33988V12.6599C1.18027 12.941 1.29195 13.2106 1.49074 13.4094C1.68953 13.6082 1.95914 13.7199 2.24027 13.7199H13.7603C14.0414 13.7199 14.311 13.6082 14.5098 13.4094C14.7086 13.2106 14.8203 12.941 14.8203 12.6599V4.33988C14.8203 4.05875 14.7086 3.78914 14.5098 3.59035C14.311 3.39156 14.0414 3.27988 13.7603 3.27988ZM2.79608 4.77663C2.82278 4.76557 2.85138 4.75988 2.88027 4.75988H13.1203C13.1492 4.75988 13.1778 4.76557 13.2045 4.77663C13.2312 4.78769 13.2554 4.80389 13.2758 4.82432C13.2963 4.84475 13.3125 4.869 13.3235 4.89569C13.3346 4.92238 13.3403 4.95099 13.3403 4.97988V12.0199C13.3403 12.0782 13.3171 12.1342 13.2758 12.1754C13.2346 12.2167 13.1786 12.2399 13.1203 12.2399H2.88027C2.82193 12.2399 2.76597 12.2167 2.72471 12.1754C2.68345 12.1342 2.66027 12.0782 2.66027 12.0199V4.97988C2.66027 4.95099 2.66596 4.92238 2.67702 4.89569C2.68808 4.869 2.70428 4.84475 2.72471 4.82432C2.74514 4.80389 2.76939 4.78769 2.79608 4.77663Z" fill="#F8FFFA" stroke="#F8FFFA" stroke-width="0.2"/>
<path d="M7.80781 8.40971L2.04087 4.7384L1.9565 4.68469L1.9028 4.76906L1.21544 5.84906L1.16176 5.93342L1.2461 5.98711L7.23841 9.80182C7.23841 9.80183 7.23842 9.80183 7.23842 9.80183C7.40857 9.91018 7.60609 9.96774 7.80781 9.96774C8.00952 9.96774 8.20705 9.91018 8.37719 9.80183C8.37719 9.80183 8.3772 9.80183 8.3772 9.80182L14.3695 5.98711L14.4539 5.93342L14.4002 5.84906L13.7128 4.76906L13.6591 4.68469L13.5747 4.7384L7.80781 8.40971Z" fill="#F8FFFA" stroke="#F8FFFA" stroke-width="0.2"/>
</g>
</svg>
