<svg width="16" height="17" viewBox="0 0 16 17" fill="none" xmlns="http://www.w3.org/2000/svg">
<g opacity="0.5">
<path d="M9.25653 6.68698C9.13014 6.56827 8.95984 6.49521 8.77253 6.49521C8.38191 6.49521 8.06527 6.81187 8.06527 7.20247C8.06527 7.37526 8.12744 7.53373 8.23039 7.65651M9.25653 6.68698L8.23039 7.65651M9.25653 6.68698C9.36444 6.76921 9.47007 6.85855 9.56972 6.95816C9.56973 6.95817 9.56973 6.95817 9.56974 6.95818L9.61903 7.00742L9.61909 7.00748C10.8198 8.20908 10.7129 10.1008 9.52095 11.2943L9.52092 11.2944L6.83608 13.98L6.83605 13.98C5.63796 15.1773 3.67858 15.1773 2.48049 13.98L2.48048 13.98L2.43043 13.93C2.43042 13.93 2.43042 13.93 2.43042 13.93C1.23228 12.7327 1.23235 10.7724 2.43038 9.57358L2.43275 9.57121L2.43279 9.57125L3.6612 8.42178C3.70085 8.37441 3.74612 8.33221 3.79577 8.29587L3.80387 8.28829L3.90264 8.19589L3.91619 8.22361C4.01545 8.17605 4.12665 8.14939 4.24393 8.14939C4.66343 8.14939 5.00349 8.48945 5.00349 8.90894C5.00349 9.1481 4.89273 9.36128 4.72032 9.50032L3.53773 10.6825L3.53766 10.6826C2.94748 11.2713 2.94736 12.2318 3.53774 12.8222L3.53777 12.8222L3.58816 12.8726C4.1785 13.4622 5.13843 13.4622 5.72874 12.8726L8.41433 10.1878C8.41433 10.1878 8.41434 10.1878 8.41434 10.1878C8.71309 9.88907 8.90714 9.48202 8.95161 9.07687C8.99597 8.67266 8.89129 8.27704 8.60226 7.98837L8.60221 7.98831L8.55216 7.93825C8.50499 7.89108 8.45416 7.84868 8.3985 7.80277C8.33631 7.76396 8.28076 7.71578 8.23363 7.66034L8.23004 7.65681L8.23039 7.65651M9.25653 6.68698L8.23039 7.65651M8.23013 7.6562C8.22939 7.65532 8.22852 7.65422 8.22801 7.65357L8.23013 7.6562ZM8.23013 7.6562C8.2302 7.65629 8.23027 7.65637 8.23034 7.65646L8.23013 7.6562Z" fill="#F8FFFA" stroke="#F8FFFA" stroke-width="0.2"/>
<path d="M9.03453 2.96995L9.03452 2.96997L6.3497 5.65557C6.34969 5.65558 6.34969 5.65558 6.34969 5.65558C5.15463 6.85065 5.08483 8.58772 6.28584 9.78952L6.28641 9.79008L6.33514 9.83806C6.33523 9.83815 6.33533 9.83824 6.33542 9.83834C6.38862 9.8915 6.44349 9.94144 6.49904 9.98901C6.54367 10.0378 6.59539 10.08 6.65253 10.1139L6.71459 10.1636L6.72715 10.1522C6.80953 10.1882 6.9005 10.2083 6.99606 10.2083C7.36791 10.2083 7.66934 9.90682 7.66934 9.53501C7.66934 9.43079 7.64557 9.33185 7.60309 9.24353C7.53408 9.08957 7.41358 8.97882 7.3253 8.89769C7.30362 8.87775 7.28387 8.85961 7.26732 8.84305L7.26673 8.84247L7.21803 8.79457C7.21794 8.79447 7.21784 8.79438 7.21775 8.79428C6.92784 8.5042 6.83833 8.15125 6.89363 7.79406C6.94946 7.43342 7.15396 7.06601 7.45702 6.76295L10.1434 4.07812L10.1435 4.07801C10.7322 3.48785 11.6924 3.48772 12.2827 4.0781L12.2833 4.07869L12.3328 4.12736C12.3329 4.12745 12.333 4.12754 12.3331 4.12763C12.9232 4.71803 12.923 5.6788 12.3329 6.2682L12.3328 6.26827L11.1552 7.44662C10.9735 7.58415 10.8557 7.80248 10.8557 8.04834C10.8557 8.46488 11.1934 8.80257 11.6099 8.80257C11.7182 8.80257 11.8212 8.77966 11.9144 8.73849L11.9312 8.7674L12.0229 8.68275L12.0357 8.67091C12.096 8.62962 12.1497 8.57983 12.1956 8.5234L13.4364 7.3784L13.4365 7.37846L13.4393 7.37565C14.6383 6.17757 14.6383 4.2181 13.4402 3.02002L13.3901 2.96995C12.192 1.77186 10.2326 1.77186 9.03453 2.96995Z" fill="#F8FFFA" stroke="#F8FFFA" stroke-width="0.2"/>
</g>
</svg>
