<svg width="184" height="24" viewBox="0 0 184 24" fill="none" xmlns="http://www.w3.org/2000/svg">
<path fill-rule="evenodd" clip-rule="evenodd" d="M22 12C22 6.477 17.523 2 12 2C6.477 2 2 6.477 2 12C2 16.991 5.657 21.128 10.438 21.878V14.891H7.898V12H10.438V9.797C10.438 7.291 11.93 5.907 14.215 5.907C15.309 5.907 16.453 6.102 16.453 6.102V8.562H15.193C13.95 8.562 13.563 9.333 13.563 10.124V12H16.336L15.893 14.89H13.563V21.878C18.343 21.128 22 16.991 22 12Z" fill="#F9FAFB"/>
<path d="M51.9991 8.87653C50.2788 8.87653 48.8749 10.2804 48.8749 12.0007C48.8749 13.7211 50.2788 15.125 51.9991 15.125C53.7194 15.125 55.1234 13.7211 55.1234 12.0007C55.1234 10.2804 53.7194 8.87653 51.9991 8.87653ZM61.3694 12.0007C61.3694 10.707 61.3812 9.42496 61.3085 8.13356C61.2359 6.63356 60.8937 5.30231 59.7968 4.20543C58.6976 3.10621 57.3687 2.76637 55.8687 2.69371C54.5749 2.62106 53.2929 2.63278 52.0015 2.63278C50.7077 2.63278 49.4257 2.62106 48.1343 2.69371C46.6343 2.76637 45.303 3.10856 44.2062 4.20543C43.1069 5.30465 42.7671 6.63356 42.6944 8.13356C42.6218 9.42731 42.6335 10.7093 42.6335 12.0007C42.6335 13.2922 42.6218 14.5765 42.6944 15.8679C42.7671 17.3679 43.1093 18.6992 44.2062 19.7961C45.3054 20.8953 46.6343 21.2351 48.1343 21.3078C49.428 21.3804 50.7101 21.3687 52.0015 21.3687C53.2952 21.3687 54.5773 21.3804 55.8687 21.3078C57.3687 21.2351 58.6999 20.8929 59.7968 19.7961C60.896 18.6968 61.2359 17.3679 61.3085 15.8679C61.3835 14.5765 61.3694 13.2945 61.3694 12.0007ZM51.9991 16.8078C49.339 16.8078 47.1921 14.6609 47.1921 12.0007C47.1921 9.34059 49.339 7.19371 51.9991 7.19371C54.6593 7.19371 56.8062 9.34059 56.8062 12.0007C56.8062 14.6609 54.6593 16.8078 51.9991 16.8078ZM57.003 8.1195C56.3819 8.1195 55.8804 7.61793 55.8804 6.99684C55.8804 6.37575 56.3819 5.87418 57.003 5.87418C57.6241 5.87418 58.1257 6.37575 58.1257 6.99684C58.1259 7.14432 58.097 7.29039 58.0406 7.42668C57.9843 7.56297 57.9016 7.68681 57.7973 7.79109C57.693 7.89538 57.5692 7.97806 57.4329 8.03442C57.2966 8.09077 57.1505 8.11968 57.003 8.1195Z" fill="white"/>
<path d="M88.29 20.2534C95.837 20.2534 99.965 14.0004 99.965 8.5784C99.965 8.4004 99.965 8.2234 99.953 8.0484C100.756 7.46693 101.449 6.74701 102 5.9224C101.251 6.2544 100.457 6.47216 99.643 6.5684C100.5 6.05546 101.141 5.24875 101.447 4.2984C100.642 4.77628 99.7607 5.11313 98.842 5.2944C98.2234 4.63616 97.405 4.20023 96.5136 4.0541C95.6222 3.90797 94.7075 4.0598 93.9111 4.48607C93.1147 4.91234 92.4811 5.58927 92.1083 6.41206C91.7355 7.23485 91.6444 8.15758 91.849 9.0374C90.2176 8.95564 88.6216 8.53172 87.1646 7.79317C85.7077 7.05461 84.4223 6.01792 83.392 4.7504C82.8673 5.6536 82.7066 6.72282 82.9425 7.74036C83.1785 8.75791 83.7934 9.64728 84.662 10.2274C84.0093 10.2085 83.3706 10.0329 82.8 9.7154V9.7674C82.8004 10.7147 83.1284 11.6327 83.7284 12.3658C84.3284 13.0988 85.1635 13.6018 86.092 13.7894C85.4878 13.9541 84.8539 13.9781 84.239 13.8594C84.5012 14.6749 85.0117 15.388 85.6991 15.899C86.3866 16.41 87.2166 16.6934 88.073 16.7094C87.2221 17.378 86.2478 17.8722 85.2057 18.1639C84.1637 18.4556 83.0743 18.539 82 18.4094C83.8766 19.6137 86.0602 20.2525 88.29 20.2494" fill="#F9FAFB"/>
<path fill-rule="evenodd" clip-rule="evenodd" d="M132 2C126.477 2 122 6.484 122 12.017C122 16.442 124.865 20.197 128.839 21.521C129.339 21.613 129.521 21.304 129.521 21.038C129.521 20.801 129.513 20.17 129.508 19.335C126.726 19.94 126.139 17.992 126.139 17.992C125.685 16.834 125.029 16.526 125.029 16.526C124.121 15.906 125.098 15.918 125.098 15.918C126.101 15.988 126.629 16.95 126.629 16.95C127.521 18.48 128.97 18.038 129.539 17.782C129.631 17.135 129.889 16.694 130.175 16.444C127.955 16.191 125.62 15.331 125.62 11.493C125.62 10.4 126.01 9.505 126.649 8.805C126.546 8.552 126.203 7.533 126.747 6.155C126.747 6.155 127.587 5.885 129.497 7.181C130.313 6.95851 131.154 6.84519 132 6.844C132.85 6.848 133.705 6.959 134.504 7.181C136.413 5.885 137.251 6.154 137.251 6.154C137.797 7.533 137.453 8.552 137.351 8.805C137.991 9.505 138.379 10.4 138.379 11.493C138.379 15.341 136.04 16.188 133.813 16.436C134.172 16.745 134.491 17.356 134.491 18.291C134.491 19.629 134.479 20.71 134.479 21.038C134.479 21.306 134.659 21.618 135.167 21.52C137.158 20.8521 138.889 19.5753 140.115 17.87C141.342 16.1648 142.001 14.1173 142 12.017C142 6.484 137.522 2 132 2Z" fill="#F9FAFB"/>
<path d="M178.957 5.28696C178.951 5.27619 178.942 5.26775 178.931 5.26315C177.634 4.66821 176.266 4.24396 174.86 4.00104C174.847 3.99867 174.834 4.00038 174.822 4.00594C174.81 4.01149 174.801 4.02061 174.795 4.03199C174.608 4.37019 174.439 4.71757 174.288 5.07281C172.772 4.84277 171.231 4.84277 169.715 5.07281C169.563 4.71667 169.391 4.3692 169.201 4.03199C169.194 4.02086 169.184 4.01195 169.173 4.00643C169.161 4.00091 169.148 3.99903 169.135 4.00104C167.729 4.24345 166.361 4.66773 165.064 5.26319C165.053 5.26789 165.044 5.27593 165.037 5.28618C162.444 9.15824 161.734 12.9351 162.083 16.6652C162.084 16.6743 162.086 16.6832 162.091 16.6912C162.095 16.6992 162.101 16.7063 162.109 16.7119C163.618 17.8298 165.307 18.6831 167.103 19.2354C167.115 19.2392 167.129 19.239 167.141 19.2349C167.154 19.2308 167.165 19.2229 167.173 19.2124C167.559 18.6877 167.9 18.132 168.195 17.5511C168.199 17.5431 168.201 17.5344 168.201 17.5255C168.202 17.5165 168.2 17.5076 168.197 17.4993C168.194 17.491 168.189 17.4834 168.182 17.4772C168.176 17.471 168.168 17.4661 168.16 17.4631C167.621 17.2569 167.099 17.0083 166.6 16.7198C166.591 16.7144 166.583 16.7069 166.578 16.698C166.572 16.689 166.569 16.6788 166.568 16.6683C166.568 16.6578 166.57 16.6473 166.574 16.6377C166.578 16.6281 166.585 16.6198 166.593 16.6134C166.699 16.5349 166.802 16.454 166.903 16.3707C166.912 16.3634 166.923 16.3587 166.934 16.3571C166.946 16.3556 166.957 16.3573 166.968 16.362C170.241 17.8558 173.785 17.8558 177.019 16.362C177.03 16.357 177.041 16.355 177.053 16.3564C177.064 16.3579 177.075 16.3625 177.084 16.3699C177.186 16.4536 177.29 16.5348 177.395 16.6134C177.403 16.6197 177.41 16.628 177.415 16.6375C177.419 16.6471 177.421 16.6576 177.421 16.6681C177.42 16.6786 177.417 16.6888 177.412 16.6978C177.406 16.7068 177.399 16.7144 177.39 16.7198C176.891 17.0108 176.369 17.2592 175.829 17.4623C175.82 17.4655 175.813 17.4704 175.806 17.4767C175.8 17.4831 175.795 17.4907 175.792 17.4991C175.789 17.5075 175.787 17.5164 175.788 17.5254C175.788 17.5344 175.791 17.5431 175.795 17.5511C176.094 18.1288 176.435 18.6837 176.816 19.2115C176.823 19.2223 176.834 19.2304 176.847 19.2347C176.859 19.239 176.873 19.2392 176.886 19.2353C178.684 18.6849 180.376 17.8315 181.888 16.7119C181.895 16.7066 181.901 16.6997 181.906 16.6918C181.91 16.6838 181.913 16.675 181.914 16.666C182.331 12.3536 181.215 8.60769 178.957 5.28696ZM168.683 14.3939C167.698 14.3939 166.886 13.4896 166.886 12.379C166.886 11.2684 167.682 10.364 168.683 10.364C169.692 10.364 170.497 11.2762 170.481 12.3789C170.481 13.4896 169.685 14.3939 168.683 14.3939ZM175.329 14.3939C174.344 14.3939 173.532 13.4896 173.532 12.379C173.532 11.2684 174.328 10.364 175.329 10.364C176.338 10.364 177.142 11.2762 177.126 12.3789C177.126 13.4896 176.338 14.3939 175.329 14.3939Z" fill="white"/>
</svg>
