<svg width="167" height="40" viewBox="0 0 167 40" fill="none" xmlns="http://www.w3.org/2000/svg">
<path fill-rule="evenodd" clip-rule="evenodd" d="M31.8287 15.9145C31.8287 24.7039 24.6134 31.829 15.7127 31.829C9.27421 31.829 3.71752 28.1006 1.13602 22.7108C2.88531 23.8182 5.01928 24.4686 7.32246 24.4686C8.09921 24.4686 8.85672 24.3946 9.58672 24.254L9.58659 24.2531C9.41405 24.264 9.24022 24.2696 9.06524 24.2696C4.05865 24.2696 0 19.7273 0 14.1241C0 13.9735 0.00293048 13.8237 0.00873109 13.6747C1.46158 18.3947 6.58883 21.8825 12.691 21.8825C19.9227 21.8825 25.7852 16.9839 25.7852 10.9412C25.7852 5.3209 20.7136 0.690335 14.1857 0.0705062C14.6884 0.0238547 15.1977 0 15.7127 0C24.6134 0 31.8287 7.12517 31.8287 15.9145Z" fill="url(#paint0_linear_104_525)"/>
<path d="M50.1683 30.7722C48.8991 30.7722 47.7529 30.6039 46.7297 30.2671C45.7066 29.9433 44.8259 29.4706 44.0877 28.849C43.3365 28.2273 42.7602 27.4891 42.3587 26.6343C41.9701 25.7795 41.7759 24.8341 41.7759 23.798C41.7759 22.9302 41.9119 22.1143 42.1838 21.3502C42.4688 20.5731 42.8638 19.8996 43.3689 19.3298C43.874 18.7599 44.4633 18.3196 45.1367 18.0087C45.8102 17.685 46.5225 17.5231 47.2737 17.5231C48.2062 17.5231 48.9897 17.7562 49.6243 18.2224C50.259 18.6887 50.654 19.3298 50.8094 20.1457C49.4236 20.1457 48.3227 20.5148 47.5068 21.253C47.1183 21.6027 46.8139 22.0301 46.5938 22.5352C46.3865 23.0403 46.2829 23.5972 46.2829 24.2059C46.2829 25.3715 46.6197 26.2976 47.2931 26.984C47.9795 27.6574 48.8991 27.9942 50.0517 27.9942C50.7382 27.9942 51.3792 27.8711 51.975 27.6251C52.5708 27.366 53.0888 27.0163 53.5292 26.576C53.9695 26.1357 54.3062 25.6111 54.5394 25.0024C54.7854 24.3808 54.9085 23.7203 54.9085 23.0209C54.9085 21.7258 54.4681 20.3788 53.5874 18.9801C53.2378 18.4361 52.8492 17.9051 52.4218 17.3871C52.0074 16.8561 51.4246 16.1567 50.6734 15.289C49.9999 14.5119 49.4366 13.8384 48.9833 13.2686C48.53 12.6987 48.122 12.1159 47.7594 11.5202C46.8787 10.0826 46.4383 8.67088 46.4383 7.28509C46.4383 6.24899 46.6585 5.29059 47.0989 4.40991C47.5392 3.51627 48.1673 2.73919 48.9833 2.07868C49.7992 1.41816 50.7511 0.906589 51.839 0.543953C52.9269 0.181318 54.099 0 55.3553 0C57.4922 0 59.2083 0.5051 60.5034 1.5153C61.1251 2.00745 61.5978 2.59673 61.9216 3.28315C62.2583 3.96956 62.4267 4.73369 62.4267 5.57552C62.4267 6.67638 62.1482 7.57649 61.5913 8.27586C61.3323 8.61259 61.0085 8.87162 60.62 9.05294C60.2444 9.23426 59.8429 9.32491 59.4155 9.32491C58.4183 9.32491 57.6088 8.91047 56.9871 8.08159C57.4922 7.71896 57.8873 7.23976 58.1722 6.644C58.4701 6.03529 58.619 5.38773 58.619 4.70131C58.619 3.84653 58.3665 3.17306 57.8614 2.68091C57.3563 2.17581 56.6634 1.92326 55.7827 1.92326C55.2517 1.92326 54.7595 2.0204 54.3062 2.21467C53.8659 2.40894 53.4903 2.68739 53.1795 3.05002C52.8557 3.41266 52.6031 3.84005 52.4218 4.3322C52.2535 4.82435 52.1693 5.36183 52.1693 5.94463C52.1693 6.77351 52.3635 7.57002 52.7521 8.33414C53.1406 9.09827 53.6975 9.89477 54.4228 10.7237C55.0704 11.4878 55.7697 12.2454 56.5209 12.9966C58.2693 14.8098 59.5062 16.5776 60.2314 18.3001C60.6588 19.3233 60.8725 20.4501 60.8725 21.6804C60.8725 22.9756 60.607 24.18 60.076 25.2938C59.545 26.3947 58.7874 27.3531 57.8031 28.169C56.8188 28.9979 55.6726 29.639 54.3645 30.0923C53.0564 30.5456 51.6577 30.7722 50.1683 30.7722Z" fill="white"/>
<path d="M66.3703 30.2865C65.1011 30.2865 64.0974 29.911 63.3592 29.1598C62.5303 28.3309 62.1159 27.12 62.1159 25.527C62.1159 24.7758 62.2195 23.908 62.4267 22.9237L63.9526 15.7114C64.6372 12.4754 67.5504 10.1603 70.858 10.1603L68.0022 23.6814C67.9245 24.0052 67.8856 24.3419 67.8856 24.6916C67.8856 25.1967 67.9698 25.5982 68.1382 25.8961C68.3325 26.2587 68.6433 26.44 69.0707 26.44C69.796 26.44 70.45 26.1098 71.0328 25.4492C71.499 24.8923 71.907 24.0505 72.2567 22.9237L73.7708 15.7671C74.4623 12.4987 77.3472 10.1603 80.688 10.1603L77.8322 23.6814C77.6898 24.3549 77.6185 24.8341 77.6185 25.119C77.6185 25.5334 77.7286 25.8572 77.9488 26.0903C78.169 26.3235 78.5122 26.44 78.9784 26.44C79.6001 26.44 80.2088 26.2198 80.8045 25.7795C81.4003 25.3392 81.9637 24.7305 82.4947 23.9534C82.9868 23.2411 83.4401 22.4122 83.8546 21.4667C84.282 20.5213 84.6446 19.5435 84.9425 18.5333C85.2274 17.549 85.4476 16.5906 85.603 15.6581C85.7713 14.7126 85.8555 13.8773 85.8555 13.152C85.8037 13.2686 85.6159 13.3657 85.2921 13.4434C85.0849 13.5082 84.8518 13.5406 84.5928 13.5406C84.1395 13.5406 83.7833 13.3204 83.5243 12.88C83.2782 12.5045 83.1552 12.0512 83.1552 11.5202C83.1552 10.8726 83.3624 10.3545 83.7769 9.966C84.1913 9.56451 84.8065 9.36377 85.6224 9.36377C86.5031 9.36377 87.1571 9.71993 87.5845 10.4322C87.9472 11.028 88.1285 11.8245 88.1285 12.8218C88.1285 13.9226 88.0313 15.1141 87.8371 16.3963C87.6558 17.6785 87.3773 18.9412 87.0017 20.1846C86.0951 23.1374 84.8712 25.4622 83.33 27.1588C81.465 29.244 79.2828 30.2865 76.7832 30.2865C75.4751 30.2865 74.4131 30.0081 73.5972 29.4512C72.7812 28.8943 72.2567 28.0589 72.0236 26.9451C71.1817 28.2273 70.1974 29.1404 69.0707 29.6843C68.2677 30.0858 67.3676 30.2865 66.3703 30.2865Z" fill="white"/>
<path d="M95.3747 8.00389C94.9473 8.00389 94.5394 7.92618 94.1508 7.77076C93.7623 7.6024 93.4255 7.37575 93.1406 7.09082C92.8557 6.81884 92.629 6.48859 92.4607 6.10005C92.3053 5.71151 92.2276 5.30355 92.2276 4.87615C92.2276 4.44876 92.3053 4.0408 92.4607 3.65226C92.629 3.26372 92.8557 2.92051 93.1406 2.62263C93.4255 2.32475 93.7623 2.09811 94.1508 1.94269C94.5394 1.77432 94.9473 1.69014 95.3747 1.69014C95.8021 1.69014 96.2101 1.77432 96.5986 1.94269C96.9871 2.09811 97.3304 2.32475 97.6282 2.62263C97.9261 2.92051 98.1528 3.26372 98.3082 3.65226C98.4765 4.0408 98.5607 4.44876 98.5607 4.87615C98.5607 5.30355 98.4765 5.71151 98.3082 6.10005C98.1528 6.48859 97.9261 6.81884 97.6282 7.09082C97.3304 7.37575 96.9871 7.6024 96.5986 7.77076C96.2101 7.92618 95.8021 8.00389 95.3747 8.00389ZM92.6744 30.2865C91.4052 30.2865 90.4014 29.911 89.6632 29.1598C88.8343 28.3309 88.4199 27.12 88.4199 25.527C88.4199 24.7758 88.5235 23.908 88.7307 22.9237L90.2448 15.7671C90.9363 12.4987 93.8212 10.1603 97.162 10.1603L94.3062 23.6814C94.2026 24.0181 94.1508 24.4455 94.1508 24.9636C94.1508 25.5075 94.2739 25.8896 94.5199 26.1098C94.779 26.3299 95.1934 26.44 95.7633 26.44C96.1518 26.44 96.5274 26.3558 96.89 26.1875C97.2656 26.0062 97.6088 25.7601 97.9196 25.4492C98.5543 24.8146 99.0335 23.9728 99.3572 22.9237H101.028C100.316 24.9312 99.422 26.5307 98.347 27.7222C97.4404 28.6935 96.4173 29.3929 95.2776 29.8203C94.4487 30.1311 93.581 30.2865 92.6744 30.2865Z" fill="white"/>
<path d="M113.733 30.2865C112.088 30.2865 110.871 29.8203 110.081 28.8878C109.394 28.0848 109.051 27.0552 109.051 25.7989C109.051 25.2032 109.122 24.5103 109.265 23.7203C109.42 22.9302 109.647 21.9135 109.945 20.6702C110.243 19.401 110.463 18.3908 110.605 17.6396C110.761 16.8755 110.839 16.215 110.839 15.6581C110.839 14.2982 110.359 13.6183 109.401 13.6183C108.727 13.6183 108.106 13.9744 107.536 14.6867C107.057 15.2955 106.642 16.1632 106.293 17.2899L103.592 30.0534H97.8614L101.069 14.9164C101.657 12.1437 104.104 10.1603 106.939 10.1603H107.808L107.381 12.2195C108.158 11.3518 108.993 10.7431 109.887 10.3934C110.547 10.1344 111.259 10.0049 112.024 10.0049C113.371 10.0049 114.433 10.3545 115.21 11.0539C116.038 11.818 116.453 12.9642 116.453 14.4925C116.453 15.412 116.285 16.61 115.948 18.0864C115.857 18.5138 115.708 19.1549 115.501 20.0097C115.125 21.4473 114.853 22.5935 114.685 23.4483C114.581 23.9922 114.53 24.4326 114.53 24.7693C114.53 25.3003 114.646 25.7147 114.879 26.0126C115.125 26.2976 115.54 26.44 116.123 26.44C116.913 26.44 117.58 26.1162 118.124 25.4687C118.538 24.9765 118.985 24.1282 119.464 22.9237H121.135C120.15 25.8378 118.907 27.8776 117.405 29.0432C116.343 29.8721 115.119 30.2865 113.733 30.2865Z" fill="white"/>
<path d="M126.497 40C125.875 40 125.292 39.9158 124.748 39.7474C124.217 39.592 123.757 39.3524 123.369 39.0287C122.954 38.7049 122.631 38.2969 122.398 37.8048C122.164 37.3256 122.048 36.7687 122.048 36.134C122.048 34.6317 122.754 33.343 124.165 32.2681C125.227 31.4781 126.684 30.7916 128.536 30.2088L129.022 28.1107C127.662 29.5613 126.069 30.2865 124.243 30.2865C122.728 30.2865 121.504 29.8138 120.571 28.8684C119.484 27.7546 118.94 26.0968 118.94 23.8951C118.94 22.9626 119.037 21.9783 119.231 20.9422C119.412 19.9061 119.684 18.883 120.047 17.8728C120.876 15.5933 122.009 13.7542 123.447 12.3555C125.104 10.7625 127.015 9.966 129.178 9.966C130.252 9.966 131.055 10.1538 131.586 10.5294C132.13 10.892 132.402 11.3777 132.402 11.9864V12.2195C132.651 11.0202 133.708 10.1603 134.933 10.1603H138.561L134.617 28.6158C135.873 28.2014 136.877 27.5797 137.628 26.7508C138.444 25.8572 139.111 24.5815 139.629 22.9237H141.3C140.588 25.2809 139.526 27.1005 138.114 28.3827C137.078 29.3152 135.796 29.9757 134.267 30.3643L133.665 33.2394C133.16 35.7779 132.15 37.617 130.635 38.7567C129.534 39.5856 128.154 40 126.497 40ZM126.827 26.44C127.397 26.44 127.999 26.1745 128.634 25.6435C129.32 25.0478 129.78 24.2772 130.013 23.3317L132.033 13.9097C132.033 13.7802 132.001 13.6312 131.936 13.4628C131.884 13.2945 131.807 13.1391 131.703 12.9966C131.392 12.621 130.958 12.4332 130.401 12.4332C129.87 12.4332 129.352 12.6081 128.847 12.9577C128.355 13.3074 127.889 13.7931 127.449 14.4148C126.671 15.5415 126.03 17.0115 125.525 18.8247C125.292 19.6277 125.117 20.4242 125.001 21.2142C124.884 21.9913 124.826 22.6971 124.826 23.3317C124.826 24.6527 125.072 25.5464 125.564 26.0126C125.732 26.1939 125.92 26.3105 126.128 26.3623C126.335 26.4141 126.568 26.44 126.827 26.44ZM125.584 36.8917C125.998 36.8917 126.425 36.6003 126.866 36.0175C127.306 35.4476 127.649 34.5605 127.895 33.356L128.128 32.2098C126.924 32.6631 126.024 33.1229 125.428 33.5891C124.638 34.1849 124.243 34.8519 124.243 35.5901C124.243 35.9398 124.353 36.2312 124.573 36.4643C124.819 36.7492 125.156 36.8917 125.584 36.8917Z" fill="white"/>
<path d="M146.273 8.00389C145.846 8.00389 145.438 7.92618 145.049 7.77076C144.661 7.6024 144.324 7.37575 144.039 7.09082C143.754 6.81884 143.528 6.48859 143.359 6.10005C143.204 5.71151 143.126 5.30355 143.126 4.87615C143.126 4.44876 143.204 4.0408 143.359 3.65226C143.528 3.26372 143.754 2.92051 144.039 2.62263C144.324 2.32475 144.661 2.09811 145.049 1.94269C145.438 1.77432 145.846 1.69014 146.273 1.69014C146.701 1.69014 147.109 1.77432 147.497 1.94269C147.886 2.09811 148.229 2.32475 148.527 2.62263C148.825 2.92051 149.051 3.26372 149.207 3.65226C149.375 4.0408 149.459 4.44876 149.459 4.87615C149.459 5.30355 149.375 5.71151 149.207 6.10005C149.051 6.48859 148.825 6.81884 148.527 7.09082C148.229 7.37575 147.886 7.6024 147.497 7.77076C147.109 7.92618 146.701 8.00389 146.273 8.00389ZM143.573 30.2865C142.304 30.2865 141.3 29.911 140.562 29.1598C139.733 28.3309 139.318 27.12 139.318 25.527C139.318 24.7758 139.422 23.908 139.629 22.9237L141.491 14.1253C141.98 11.8139 144.02 10.1603 146.382 10.1603H148.06L145.205 23.6814C145.101 24.0181 145.049 24.4455 145.049 24.9636C145.049 25.5075 145.172 25.8896 145.418 26.1098C145.677 26.3299 146.092 26.44 146.662 26.44C147.05 26.44 147.426 26.3558 147.789 26.1875C148.164 26.0062 148.507 25.7601 148.818 25.4492C149.453 24.8146 149.932 23.9728 150.256 22.9237H151.926C151.214 24.9312 150.32 26.5307 149.246 27.7222C148.339 28.6935 147.316 29.3929 146.176 29.8203C145.347 30.1311 144.479 30.2865 143.573 30.2865Z" fill="white"/>
<path d="M155.967 30.2865C154.012 30.2865 152.503 29.7944 151.441 28.8101C150.314 27.761 149.751 26.1486 149.751 23.9728C149.751 23.1569 149.835 22.2503 150.003 21.253C150.159 20.2558 150.398 19.2585 150.722 18.2613C151.085 17.1475 151.544 16.092 152.101 15.0947C152.671 14.0975 153.332 13.2168 154.083 12.4526C155.818 10.6913 157.955 9.81059 160.494 9.81059C162.113 9.81059 163.291 10.1991 164.029 10.9762C164.599 11.5849 164.884 12.4656 164.884 13.6183C164.884 14.745 164.638 15.807 164.146 16.8043C163.654 17.7886 162.974 18.6628 162.106 19.4269C161.238 20.1781 160.254 20.7803 159.153 21.2336C158.052 21.674 156.913 21.933 155.734 22.0107C155.669 22.6842 155.637 23.2152 155.637 23.6037C155.637 24.8988 155.883 25.7925 156.375 26.2846C156.803 26.7249 157.515 26.9451 158.512 26.9451C159.95 26.9451 161.264 26.5566 162.456 25.7795C162.961 25.4557 163.447 25.0737 163.913 24.6333C164.379 24.18 164.923 23.6102 165.545 22.9237H166.905C165.648 25.0478 164.204 26.7379 162.572 27.9942C160.565 29.5224 158.363 30.2865 155.967 30.2865ZM156.045 20.1068C156.783 20.055 157.502 19.8413 158.201 19.4658C158.901 19.0902 159.522 18.598 160.066 17.9893C160.61 17.3677 161.038 16.6748 161.348 15.9106C161.659 15.1336 161.815 14.3435 161.815 13.5406C161.815 13.0096 161.737 12.6081 161.582 12.3361C161.439 12.0512 161.187 11.9087 160.824 11.9087C160.345 11.9087 159.859 12.1418 159.367 12.6081C158.888 13.0743 158.422 13.7154 157.968 14.5313C157.554 15.2955 157.178 16.1632 156.841 17.1345C156.505 18.1059 156.239 19.0966 156.045 20.1068Z" fill="white"/>
<defs>
<linearGradient id="paint0_linear_104_525" x1="27.7998" y1="11.9359" x2="8.83221" y2="26.0889" gradientUnits="userSpaceOnUse">
<stop stop-color="#8CE96F"/>
<stop offset="0.185" stop-color="#7CE888"/>
<stop offset="1" stop-color="#35E2F4"/>
</linearGradient>
</defs>
</svg>
