<svg width="497" height="520" viewBox="0 0 497 520" fill="none" xmlns="http://www.w3.org/2000/svg">
<g clip-path="url(#clip0_342_366)">
<path d="M365.418 86.5836C365.418 86.5836 168.754 144.193 125.549 157.176C82.3452 170.159 76.7107 172.12 53.9204 178.959C31.1303 185.801 26.0292 201.725 19.6577 223.247C13.2861 244.769 25.389 250.436 46.8312 249.32C68.2734 248.204 72.0653 232.309 66.2078 215.697C60.3404 199.085 66.4405 184.87 106.095 172.759C145.75 160.65 296.961 116.616 330.06 106.505C363.158 96.3938 382.972 88.6699 382.972 88.6699L365.418 86.5836Z" fill="white"/>
<path d="M41.9339 250.426C30.8299 250.426 23.8182 248.146 20.0555 243.362C16.4575 238.791 16.0211 232.125 18.7269 222.976C24.7396 202.686 29.9279 185.161 53.6394 178.029C63.2306 175.147 69.7865 173.129 77.3703 170.8C87.5628 167.665 100.238 163.765 125.268 156.245C167.988 143.407 363.179 86.2246 365.146 85.6423C365.272 85.6036 365.408 85.5938 365.535 85.6134L383.088 87.7093C383.535 87.7578 383.884 88.107 383.932 88.5535C383.99 88.9998 383.738 89.417 383.321 89.5819C383.126 89.6596 363.101 97.4417 330.341 107.446C314.533 112.278 272.086 124.747 227.145 137.963C177.958 152.421 127.092 167.374 106.377 173.702C84.663 180.329 71.8813 187.975 67.2941 197.057C64.6272 202.346 64.569 208.167 67.1195 215.378C70.7756 225.721 70.4751 234.871 66.2855 241.139C62.5421 246.738 56.0155 249.815 46.8897 250.291C45.1538 250.387 43.5051 250.426 41.9339 250.426ZM365.506 87.5735C358.377 89.6596 167.959 145.454 125.831 158.108C100.81 165.628 88.135 169.528 77.9424 172.663C70.3489 175.002 63.7932 177.01 54.2018 179.902C31.4893 186.723 26.6791 202.976 20.5889 223.537C18.0674 232.038 18.3971 238.132 21.578 242.178C25.399 247.03 33.6423 249.049 46.7829 248.37C55.2687 247.922 61.2912 245.137 64.6659 240.083C68.5063 234.338 68.7294 225.799 65.2866 216.047C62.5906 208.401 62.6778 201.919 65.5582 196.204C70.3974 186.615 83.5576 178.65 105.805 171.867C126.529 165.54 177.405 150.587 226.592 136.129C271.523 122.923 313.97 110.444 329.768 105.622C354.334 98.121 371.702 91.8817 378.909 89.2035L365.506 87.5735Z" fill="black"/>
<path d="M269.399 196.941L295.671 248.981C295.671 248.981 269.797 279.896 265.869 273.025C263.967 269.688 244.717 231.321 242.827 227.371C240.751 223.024 239.19 219.521 239.19 219.521C239.19 219.521 228.929 228.952 220.724 225.566C205.964 219.481 194.239 185.801 187.062 160.922L237.512 144.018L264.696 156.817L269.399 196.941Z" fill="white"/>
<path d="M273.192 201.414C272.376 202.161 271.134 201.987 270.068 201.715C259.575 199.037 250.275 190.857 245.727 180.299C247.86 179.301 249.343 177.048 249.916 174.564C250.488 172.07 250.197 169.373 249.267 166.956C248.8 165.764 248.18 164.609 247.268 163.755C244.717 161.319 240.528 161.94 238.123 164.386C235.718 166.831 234.826 170.577 234.728 174.177C234.632 177.777 235.213 181.386 235.281 184.996C231.054 178.602 226.524 172.749 220.192 170.325C209.243 166.132 202.531 177.096 192.184 177.418C170.586 178.087 160.181 162.979 157.63 153.722C192.95 152.625 188.014 127.6 215.508 117.12C222.519 114.452 230.869 115.626 237.512 120.711C243.553 115.839 252.65 115.762 259.032 120.526C261.467 122.341 263.474 124.738 265.267 127.27C272.551 137.527 276.527 150.384 276.343 163.076C276.275 167.957 275.606 172.789 274.946 177.602C274.413 181.493 273.87 185.393 273.336 189.285C272.765 193.428 272.202 197.756 273.192 201.414Z" fill="black"/>
<path d="M390.885 133.053C391.428 124.349 390.837 115.558 392.747 107.048C393.649 103.05 394.832 98.9944 394.395 94.919C393.639 87.8744 387.442 81.8 380.382 81.1887C375.63 80.7812 370.81 82.6636 367.29 85.8851C364.875 88.0974 363.003 90.9891 362.382 94.201C361.005 101.391 365.922 108.174 367.174 115.384C368.076 120.555 367.066 125.854 367.329 131.093C367.591 136.333 369.666 142.087 374.456 144.222C377.987 145.804 390.244 143.339 390.885 133.053Z" fill="white"/>
<path d="M418.981 66.6819C401.029 70.4371 383.359 77.1034 366.156 83.2845C365.05 83.6824 364.312 84.74 364.362 85.9141C364.526 89.7664 365.729 93.5702 367.755 96.8596C368.375 97.859 369.617 98.2957 370.742 97.9269C388.053 92.2699 405.17 86.0499 422.064 79.2576C422.665 79.015 423.315 78.7432 423.655 78.1903C424.11 77.4527 423.886 76.5018 423.625 75.6771C422.791 73.057 421.705 69.1078 420.28 67.1671C419.969 66.7596 419.465 66.5848 418.981 66.6819Z" fill="black"/>
<path d="M429.386 110.726C426.922 106.99 423.896 103.652 421.152 100.12C420.057 98.7033 418.941 97.2672 418.205 95.6371C417.486 94.0456 417.137 92.3185 416.77 90.6204C416.021 87.2242 415.129 83.8571 414.101 80.5386C412.561 75.551 410.339 70.2334 405.713 67.8368C401.301 65.5467 395.928 66.5656 391.225 68.1861C386.928 69.661 382.787 71.5919 378.899 73.9208C377.889 74.5225 376.746 75.4927 377.055 76.6377C377.231 77.2879 377.831 77.7148 378.366 78.1126C383.068 81.5574 386.279 86.574 387.317 92.3185C387.317 92.3185 380.072 94.8801 380.16 95.8117C382.583 99.4796 385.736 102.662 389.382 105.127C392.496 107.233 395.938 108.795 399.042 110.901C406.625 116.024 411.822 124.097 415.101 132.646C418.378 141.195 419.891 150.296 421.444 159.311C425.264 181.521 429.415 203.674 432.847 226.265C433.188 228.497 431.947 230.709 429.832 231.504C413.403 237.724 395.056 237.016 377.376 237.724C358.397 238.481 337.945 241.742 324.657 255.317C318.539 261.565 314.3 270.658 316.764 279.051C318.975 286.581 326.17 291.831 333.764 293.81C341.358 295.789 349.368 295.042 357.156 294.072C389.217 290.094 420.851 282.642 451.332 271.89C455.047 270.581 458.684 269.037 462.184 267.222C467.994 264.225 474.56 259.858 477.128 253.346C478.864 248.941 478.826 243.993 478.138 239.306C472.494 200.424 456.035 151.034 429.386 110.726Z" fill="white"/>
<path d="M344.451 296.012C340.767 296.012 337.091 295.673 333.512 294.742C324.725 292.452 317.947 286.542 315.832 279.313C313.108 270.017 318.247 260.469 323.969 254.628C338.196 240.101 359.968 237.443 377.336 236.744C380.344 236.628 383.369 236.54 386.405 236.463C400.961 236.085 416.013 235.686 429.492 230.582C431.161 229.951 432.169 228.186 431.897 226.39C429.492 210.555 426.69 194.69 423.974 179.339C422.801 172.701 421.637 166.084 420.493 159.447L420.376 158.758C418.893 150.131 417.36 141.204 414.199 132.966C410.591 123.544 405.16 116.189 398.507 111.686C396.986 110.658 395.336 109.736 393.745 108.843C392.116 107.931 390.438 106.99 388.849 105.913C385.125 103.4 381.837 100.081 379.354 96.3259C379.266 96.1998 379.218 96.0445 379.198 95.8893C379.13 95.2392 379.034 94.2689 386.201 91.6682C385.076 86.5643 382.108 82.0424 377.793 78.8792C377.143 78.4037 376.376 77.8409 376.115 76.8706C375.901 76.0846 375.921 74.5514 378.394 73.0766C382.341 70.7089 386.55 68.7488 390.905 67.2546C397.305 65.0518 402.29 64.9644 406.15 66.9634C411.144 69.5541 413.433 75.1337 415.013 80.2377C416.051 83.5756 416.953 86.9912 417.7 90.3972L417.797 90.8144C418.137 92.3767 418.466 93.8516 419.077 95.2198C419.775 96.753 420.861 98.1599 421.909 99.5086C422.821 100.683 423.761 101.828 424.702 102.983C426.573 105.273 428.512 107.65 430.181 110.173C454.387 146.784 472.668 195 479.078 239.14C479.922 244.953 479.573 249.708 478.012 253.677C475.869 259.111 470.835 263.817 462.611 268.057C459.188 269.824 455.492 271.415 451.633 272.773C421.124 283.534 389.372 291.016 357.253 295.004C353.092 295.547 348.767 296.012 344.451 296.012ZM381.391 95.8893C383.679 99.1787 386.618 102.08 389.925 104.312C391.448 105.34 393.086 106.262 394.687 107.155C396.315 108.067 398.004 109.008 399.594 110.085C406.585 114.811 412.259 122.486 416.013 132.287C419.242 140.7 420.783 149.724 422.288 158.447L422.403 159.136C423.547 165.764 424.711 172.382 425.884 179.019C428.6 194.369 431.402 210.254 433.817 226.109C434.226 228.807 432.703 231.456 430.181 232.407C416.39 237.627 401.175 238.024 386.453 238.413C383.427 238.491 380.412 238.569 377.414 238.695C360.395 239.374 339.098 241.956 325.346 255.996C320.013 261.439 315.202 270.289 317.684 278.78C319.993 286.639 327.625 291.21 333.997 292.869C341.425 294.81 349.446 294.053 357.03 293.111C389.003 289.143 420.629 281.691 451.002 270.978C454.776 269.648 458.392 268.096 461.739 266.369C469.516 262.352 474.258 257.975 476.218 252.998C477.653 249.348 477.972 244.925 477.168 239.452C470.786 195.573 452.622 147.657 428.572 111.269C426.952 108.824 425.052 106.485 423.208 104.234C422.258 103.07 421.308 101.905 420.386 100.722C419.27 99.2758 418.107 97.7814 417.322 96.0349C416.624 94.4823 416.255 92.8424 415.905 91.2511L415.818 90.8337C415.081 87.4862 414.189 84.1189 413.171 80.8295C411.706 76.104 409.621 70.9611 405.266 68.7003C401.902 66.9536 397.411 67.0894 391.544 69.1078C387.317 70.5633 383.233 72.4651 379.402 74.7649C378.637 75.221 377.861 75.9003 377.997 76.3951C378.074 76.7056 378.501 77.0161 378.919 77.3169C383.892 80.9655 387.209 86.2246 388.277 92.1534C388.364 92.6193 388.091 93.085 387.646 93.2403C385.231 94.0748 382.447 95.2294 381.391 95.8893Z" fill="black"/>
<path d="M362.47 237.782C360.492 257.004 362.664 276.645 368.677 294.693C347.506 299.583 325.549 301.116 303.904 299.215C301.353 298.992 298.639 298.652 296.65 297.041C294.44 295.246 293.596 292.248 293.372 289.405C292.742 281.448 296.021 273.53 301.034 267.33C306.047 261.129 312.691 256.443 319.566 252.385C332.736 244.624 347.516 238.773 362.47 237.782Z" fill="white"/>
<path d="M289.794 276.441C314.746 262.41 339.651 248.302 364.516 234.114C366.631 232.912 368.822 231.63 370.18 229.621C371.139 228.196 371.614 226.506 372.061 224.847C380.218 194.922 388.819 155.226 390.875 133.063C379.238 123.127 370.732 110.668 366.621 96.1222C370.237 96.0543 373.604 94.6958 376.707 93.3663C378.268 92.6968 379.897 91.9787 380.984 90.6688C382.633 88.6991 382.681 85.856 382.311 83.3234C381.701 79.1799 379.693 74.7262 375.727 73.3967C374.079 72.8436 372.295 72.9116 370.568 73.1445C367.89 73.5035 365.254 74.2409 362.78 75.3276C360.103 76.5018 357.524 78.1805 356.002 80.684C354.479 83.1874 354.256 86.6322 356.138 89.5044C352.841 95.7825 354.693 104.312 360.307 108.649C362.354 110.231 364.885 111.386 366.096 113.666C366.767 114.918 366.94 116.383 366.98 117.8C367.212 125.824 363.595 133.558 360.744 141.369C354.13 159.476 346.031 176.807 338.429 194.525C337.392 196.951 336.296 199.445 334.404 201.288C331.61 203.986 327.577 204.83 323.785 205.673C309.035 208.944 294.662 213.97 281.085 220.608C280.183 225.528 279.271 230.564 280.047 235.512C280.803 240.364 283.122 244.807 284.925 249.388C288.203 257.655 289.822 266.611 289.794 276.441Z" fill="white"/>
<path d="M372.245 417.023C372.547 378.792 362.043 336.816 351.667 300.01C345.401 277.779 344.441 281.573 315.794 264.185C306.047 247.912 295.496 231.261 294.051 212.786C278.981 217.58 263.92 222.373 248.85 227.167C234.982 231.582 220.231 236.598 211.367 248.146C202.328 259.925 201.436 276.14 203.909 290.783C206.702 307.259 213.316 323.076 223.081 336.63C231.849 348.799 243.108 359.183 250.576 372.184C258.925 386.729 262.01 403.604 265.985 421.371C294.43 424.593 331.756 427.427 372.245 417.023Z" fill="white"/>
<path d="M99.2778 402.556C99.2778 406.612 94.9816 410.124 91.0637 412.492C87.1263 414.861 84.5564 418.974 84.12 423.545C83.8 427.019 83.4121 430.318 83.1502 430.318C82.9854 430.318 82.772 427.776 82.5781 424.825C82.2095 419.575 79.3486 414.803 74.8682 412.047C71.0083 409.669 67.0322 406.312 67.0322 402.566C67.0322 404.681 74.2475 406.398 83.1598 406.398C92.0529 406.398 99.2778 404.671 99.2778 402.556Z" fill="white"/>
<path d="M272.154 305.464C270.543 297.352 274.617 289.327 280.454 283.912C286.787 278.043 294.963 274.742 302.886 271.637C307.58 269.794 312.284 267.961 316.774 265.65C317.88 265.077 316.91 263.4 315.804 263.971C300.627 271.803 279.33 275.044 271.853 292.616C270.048 296.847 269.38 301.428 270.272 305.959C270.523 307.171 272.395 306.677 272.154 305.464ZM283.771 218.792C284.916 236.686 295.476 251.9 305.572 266.03C306.291 267.038 307.977 266.078 307.25 265.059C297.388 251.261 286.836 236.299 285.711 218.802C285.633 217.56 283.693 217.55 283.771 218.792ZM316.89 263.07C330.894 254.656 344.908 246.243 358.912 237.83C364.759 234.318 370.665 230.854 373.4 224.276C374.768 220.985 375.466 217.454 376.28 214C377.22 210.01 378.152 206.013 379.092 202.025C380.693 195.204 382.497 188.402 383.786 181.521C384.64 176.952 385.473 172.372 386.279 167.781C388.091 157.506 389.857 147.211 391.195 136.857C391.689 133.005 391.991 129.191 392.164 125.32C392.428 119.575 392.941 113.841 393.591 108.125C393.629 107.766 393.669 107.407 393.717 107.058C393.873 105.816 391.923 105.825 391.777 107.048C391.272 111.182 390.885 115.335 390.584 119.478C390.245 124.117 390.197 128.764 389.682 133.383C388.576 143.281 386.86 153.12 385.173 162.93C384.339 167.773 383.475 172.614 382.583 177.456C381.545 183.103 380.256 188.664 378.937 194.253C377.115 201.997 375.349 209.749 373.477 217.483C372.652 220.889 371.682 224.353 369.599 227.225C367.619 229.961 364.787 231.96 361.955 233.727C355.341 237.87 348.574 241.79 341.882 245.808C334.947 249.969 328.014 254.133 321.079 258.306C319.363 259.334 317.646 260.363 315.93 261.401C314.852 262.032 315.814 263.719 316.89 263.07Z" fill="black"/>
<path d="M335.345 258.246C343.976 277.751 351.095 297.924 356.623 318.535C362.111 338.999 366.049 359.881 368.357 380.936C369.657 392.853 370.441 404.817 370.713 416.802C370.956 416.49 371.198 416.181 371.441 415.869C364.933 417.712 358.203 418.926 351.54 420.013C335.209 422.681 318.616 423.904 302.062 423.623C290.066 423.419 278.089 422.399 266.257 420.44C266.49 420.673 266.714 420.905 266.945 421.129C265.656 414.122 263.988 407.165 262.155 400.286C260.545 394.279 258.839 388.235 256.617 382.412C254.63 377.202 252.029 372.262 248.966 367.605C243.777 359.736 237.251 352.991 231.432 345.616C225.409 337.99 219.882 329.927 215.342 321.319C209.524 310.276 205.587 298.323 204.413 285.863C203.414 275.199 204.374 263.981 208.904 254.152C210.911 249.795 213.714 246.147 217.38 243.052C221.229 239.801 225.672 237.277 230.21 235.133C237.746 231.572 245.727 229.186 253.65 226.662C266.925 222.431 280.203 218.201 293.478 213.98C293.76 213.892 294.031 213.804 294.313 213.718C293.905 213.407 293.508 213.087 293.101 212.776C293.159 213.417 293.217 214.048 293.265 214.689C293.372 215.921 295.312 215.941 295.205 214.699C295.147 214.058 295.089 213.427 295.041 212.786C294.991 212.205 294.468 211.642 293.828 211.845C281.889 215.649 269.943 219.453 258.004 223.257C250.421 225.673 242.729 227.894 235.331 230.835C226.263 234.444 216.797 239.218 210.766 247.166C207.886 250.96 205.994 255.52 204.647 260.051C203.124 265.155 202.358 270.493 202.164 275.81C201.717 288.191 204.268 300.719 208.932 312.159C213.025 322.221 218.649 331.594 225.021 340.357C230.316 347.635 236.397 354.214 241.973 361.268C245.252 365.411 248.267 369.768 250.798 374.407C253.785 379.89 255.841 385.711 257.665 391.659C260.525 400.965 262.872 410.456 264.764 420.013C264.87 420.546 264.977 421.071 265.073 421.604C265.131 421.915 265.452 422.245 265.762 422.293C285.673 425.592 305.951 426.301 326.064 424.883C339.194 423.962 352.306 422.195 365.166 419.362C367.426 418.868 369.695 418.353 371.926 417.722C372.333 417.606 372.662 417.219 372.652 416.792C372.177 395.443 370.044 374.135 366.31 353.108C362.548 331.944 357.146 311.073 350.173 290.743C346.275 279.401 341.891 268.232 337.033 257.258C336.518 256.131 334.841 257.112 335.345 258.246Z" fill="black"/>
<path d="M267.508 410.959C293.817 413.744 320.41 413.433 346.652 410.048C354.12 409.086 361.558 407.864 368.948 406.408C370.179 406.166 369.676 404.293 368.463 404.527C342.521 409.639 316.008 411.698 289.58 410.629C282.21 410.328 274.858 409.785 267.518 409.01C266.276 408.882 266.276 410.823 267.508 410.959ZM351.521 298.876C354.934 298.71 358.349 297.973 361.694 297.332C364.031 296.885 366.359 296.41 368.677 295.897C369.162 295.789 369.531 295.198 369.375 294.712C364.633 280.439 362.626 265.223 362.761 250.203C362.799 246.059 363.023 241.916 363.44 237.792C363.488 237.307 362.965 236.774 362.48 236.812C360.754 236.958 359.027 237.113 357.301 237.259C356.07 237.365 356.05 239.306 357.291 239.198C359.017 239.054 360.744 238.899 362.47 238.753C362.151 238.423 361.829 238.102 361.51 237.773C359.997 252.823 360.937 268.242 364.176 283.011C365.078 287.124 366.184 291.19 367.513 295.188C367.746 294.79 367.978 294.401 368.212 294.004C365.98 294.489 363.741 294.954 361.5 295.382C358.231 296.022 354.886 296.759 351.55 296.925C350.29 296.993 350.27 298.934 351.521 298.876Z" fill="black"/>
<path d="M353.19 243.633C351.677 260.595 354.004 277.819 359.949 293.772C360.385 294.936 362.266 294.451 361.829 293.287C355.924 277.47 353.635 260.459 355.128 243.643C355.245 242.401 353.306 242.401 353.19 243.633ZM380.286 107.271C379.296 102.934 375.271 100.508 371.237 99.4699C370.074 99.169 368.812 98.907 367.958 97.9852C367.096 97.0537 366.785 95.7146 366.679 94.492C366.465 91.9787 367.076 89.3782 366.252 86.9331C365.621 85.0796 364.206 83.3136 362.199 82.9352C360.211 82.5568 358.417 83.7114 357.213 85.2058C354.246 88.9028 353.286 94.492 353.743 99.0915C354.12 102.944 355.323 106.301 358.658 108.484C359.871 109.28 361.229 109.882 362.354 110.803C363.488 111.735 364.294 112.996 364.837 114.355C367.465 120.944 364.651 128.347 362.228 134.557C357.62 146.396 352.773 158.137 347.903 169.868C345.644 175.321 343.375 180.775 341.038 186.19C340.349 187.781 339.671 189.373 338.943 190.934C337.827 193.341 336.877 195.912 335.422 198.135C333.851 200.541 331.427 202.015 328.788 203.043C324.687 204.645 320.284 205.509 316.066 206.741C309.063 208.778 302.12 211.001 295.204 213.321C294.797 213.457 294.4 213.592 293.993 213.728C293.546 213.882 293.314 214.204 293.266 214.659C292.296 223.858 296.737 232.591 300.704 240.596C304.903 249.067 309.597 257.276 314.746 265.205C315.425 266.252 317.113 265.281 316.425 264.234C311.439 256.559 306.881 248.621 302.788 240.44C298.823 232.503 294.235 223.819 295.196 214.669C294.953 214.979 294.711 215.29 294.468 215.6C299.579 213.854 304.728 212.205 309.897 210.603C314.096 209.303 318.315 208.051 322.564 206.925C326.23 205.955 330.108 205.042 333.309 202.908C337.45 200.152 339.078 195.301 341.038 190.954C342.988 186.625 344.81 182.24 346.644 177.863C351.753 165.656 356.778 153.411 361.684 141.117C363.721 136.003 366.106 130.812 367.174 125.397C367.89 121.739 368.104 117.761 366.835 114.19C365.807 111.318 364.013 109.367 361.402 107.844C360.153 107.116 358.872 106.427 357.892 105.331C356.505 103.778 356.022 101.672 355.749 99.664C355.401 97.0633 355.585 94.3853 356.253 91.8429C356.826 89.65 357.738 87.001 359.57 85.5259C361.675 83.8376 363.837 85.4872 364.488 87.719C365.224 90.2516 364.458 92.9977 364.895 95.5884C365.244 97.6941 366.33 99.6057 368.317 100.537C370.345 101.488 372.574 101.624 374.544 102.779C376.444 103.895 377.939 105.544 378.434 107.727C378.685 108.979 380.557 108.484 380.286 107.271Z" fill="black"/>
<path d="M366.156 97.2769C369.356 97.3157 372.499 96.714 375.436 95.4624C377.929 94.4047 380.974 92.7744 382.429 90.3776C383.844 88.0295 383.786 84.6914 383.263 82.0909C382.729 79.4613 381.392 76.7929 379.286 75.0852C377.376 73.5422 374.961 72.6786 372.547 72.3876C370.383 72.1256 368.463 72.5234 366.418 73.1736C363.111 74.2311 359.706 75.5023 357.098 77.87C353.462 81.1594 353.384 85.7298 355.324 89.9799C355.837 91.1153 357.515 90.1352 357 89.0096C355.537 85.7977 355.41 82.3433 357.99 79.7039C359.978 77.6565 362.752 76.4728 365.408 75.5509C366.689 75.1046 368.036 74.5806 369.385 74.3477C371.557 73.9789 373.944 74.3961 375.951 75.2986C380.48 77.346 382.342 82.7509 381.449 87.4473C380.857 90.5428 377.909 92.2213 375.243 93.4634C372.411 94.7831 369.308 95.3943 366.184 95.3458C364.915 95.3168 364.905 97.2574 366.156 97.2769Z" fill="black"/>
<path d="M382.389 83.2263C384.998 87.1174 386.676 91.513 387.355 96.1513C387.433 96.6753 388.073 96.9664 388.538 96.85C389.091 96.714 389.305 96.1805 389.237 95.6661C388.538 90.8823 386.764 86.2829 384.078 82.256C383.379 81.2275 381.691 82.188 382.389 83.2263ZM191.854 174.574C194.066 188.023 198.983 201.006 206.275 212.524C209.495 217.6 213.248 223.169 218.786 225.925C221.337 227.195 224.139 227.69 226.961 227.195C230.162 226.642 233.032 224.897 235.65 223.052C242.041 218.551 247.82 213.213 252.883 207.255C253.688 206.314 252.311 204.936 251.506 205.897C247.21 210.963 242.39 215.591 237.095 219.607C232.304 223.247 226.592 227.195 220.395 224.537C215.052 222.247 211.454 216.969 208.419 212.263C204.878 206.77 201.853 200.929 199.458 194.844C196.82 188.149 194.91 181.182 193.746 174.089C193.533 172.857 191.661 173.352 191.854 174.574Z" fill="black"/>
<path d="M238.706 219.375C239.917 222.363 241.12 225.352 242.332 228.341C242.526 228.826 242.962 229.176 243.515 229.04C243.97 228.923 244.407 228.341 244.214 227.856C243.001 224.867 241.799 221.878 240.586 218.89C240.392 218.405 239.957 218.056 239.404 218.191C238.947 218.307 238.51 218.89 238.706 219.375ZM270.581 200.405C272.541 206.276 275.13 211.923 278.341 217.211C278.991 218.279 280.668 217.309 280.019 216.241C276.896 211.089 274.365 205.625 272.453 199.91C272.066 198.736 270.184 199.221 270.581 200.405Z" fill="black"/>
<path d="M266.887 421.051C257.232 430.435 236.019 454.338 233.371 469.904C230.723 485.471 227.026 509.788 225.509 520" stroke="black" stroke-width="2"/>
<path d="M354.194 446.72C351.022 454.724 342.939 472.471 335.988 479.427C332.678 490.191 333.919 509.236 330.609 520" stroke="black" stroke-width="2"/>
<path d="M371.573 416.083C377.504 435.127 389.366 475.535 389.366 484.809C389.366 494.083 389.366 512.686 389.366 520.828" stroke="black" stroke-width="2"/>
<path opacity="0.3" fill-rule="evenodd" clip-rule="evenodd" d="M496.535 317.134C496.535 412.711 418.118 490.191 321.386 490.191C251.412 490.191 191.022 449.648 162.966 391.039C181.977 403.079 205.168 410.151 230.198 410.151C238.639 410.151 246.872 409.347 254.805 407.819L254.804 407.809C252.928 407.928 251.039 407.988 249.137 407.988C194.725 407.988 150.615 358.595 150.615 297.664C150.615 296.023 150.647 294.39 150.711 292.766C166.495 344.098 222.222 382.03 288.545 382.03C367.14 382.03 430.854 328.762 430.854 263.053C430.854 201.937 375.735 151.583 304.79 144.843C310.253 144.336 315.789 144.076 321.386 144.076C418.118 144.076 496.535 221.557 496.535 317.134Z" fill="#FDF5A8"/>
<mask id="path-24-outside-1_342_366" maskUnits="userSpaceOnUse" x="115.513" y="135.452" width="350" height="351" fill="black">
<rect fill="white" x="115.513" y="135.452" width="350" height="351"/>
<path fill-rule="evenodd" clip-rule="evenodd" d="M463.432 310.51C463.432 406.086 385.015 483.567 288.283 483.567C218.31 483.567 157.92 443.023 129.864 384.415C148.874 396.455 172.065 403.527 197.095 403.527C205.537 403.527 213.769 402.723 221.703 401.194L221.701 401.185C219.826 401.304 217.936 401.364 216.034 401.364C161.622 401.364 117.513 351.971 117.513 291.04C117.513 289.399 117.545 287.766 117.608 286.142C133.393 337.473 189.119 375.406 255.443 375.406C334.038 375.406 397.751 322.138 397.751 256.429C397.751 195.313 342.633 144.959 271.688 138.219C277.15 137.712 282.686 137.452 288.283 137.452C385.015 137.452 463.432 214.933 463.432 310.51Z"/>
</mask>
<path fill-rule="evenodd" clip-rule="evenodd" d="M463.432 310.51C463.432 406.086 385.015 483.567 288.283 483.567C218.31 483.567 157.92 443.023 129.864 384.415C148.874 396.455 172.065 403.527 197.095 403.527C205.537 403.527 213.769 402.723 221.703 401.194L221.701 401.185C219.826 401.304 217.936 401.364 216.034 401.364C161.622 401.364 117.513 351.971 117.513 291.04C117.513 289.399 117.545 287.766 117.608 286.142C133.393 337.473 189.119 375.406 255.443 375.406C334.038 375.406 397.751 322.138 397.751 256.429C397.751 195.313 342.633 144.959 271.688 138.219C277.15 137.712 282.686 137.452 288.283 137.452C385.015 137.452 463.432 214.933 463.432 310.51Z" fill="white" fill-opacity="0.9"/>
<path d="M129.864 384.415L130.934 382.725C130.18 382.248 129.202 382.327 128.535 382.919C127.869 383.512 127.675 384.474 128.06 385.278L129.864 384.415ZM221.703 401.194L222.081 403.158C223.122 402.958 223.826 401.98 223.685 400.929L221.703 401.194ZM221.701 401.185L223.684 400.919C223.544 399.878 222.623 399.122 221.575 399.189L221.701 401.185ZM117.608 286.142L119.52 285.554C119.233 284.622 118.316 284.033 117.349 284.159C116.383 284.285 115.648 285.09 115.61 286.064L117.608 286.142ZM271.688 138.219L271.503 136.227C270.475 136.323 269.689 137.185 269.688 138.217C269.687 139.249 270.471 140.112 271.499 140.21L271.688 138.219ZM288.283 485.567C386.097 485.567 465.432 407.214 465.432 310.51H461.432C461.432 404.959 383.934 481.567 288.283 481.567V485.567ZM128.06 385.278C156.44 444.564 217.521 485.567 288.283 485.567V481.567C219.098 481.567 159.399 441.483 131.668 383.551L128.06 385.278ZM128.794 386.104C148.125 398.348 171.688 405.527 197.095 405.527V401.527C172.443 401.527 149.623 394.562 130.934 382.725L128.794 386.104ZM197.095 405.527C205.664 405.527 214.023 404.71 222.081 403.158L221.324 399.231C213.515 400.735 205.41 401.527 197.095 401.527V405.527ZM223.685 400.929L223.684 400.919L219.719 401.451L219.72 401.46L223.685 400.929ZM221.575 399.189C219.741 399.305 217.894 399.364 216.034 399.364V403.364C217.979 403.364 219.91 403.303 221.828 403.181L221.575 399.189ZM216.034 399.364C162.934 399.364 119.513 351.085 119.513 291.04H115.513C115.513 352.856 160.311 403.364 216.034 403.364V399.364ZM119.513 291.04C119.513 289.425 119.544 287.818 119.607 286.22L115.61 286.064C115.545 287.714 115.513 289.373 115.513 291.04H119.513ZM255.443 373.406C189.809 373.406 134.995 335.879 119.52 285.554L115.696 286.73C131.791 339.068 188.43 377.406 255.443 377.406V373.406ZM395.751 256.429C395.751 320.713 333.283 373.406 255.443 373.406V377.406C334.792 377.406 399.751 323.563 399.751 256.429H395.751ZM271.499 140.21C341.73 146.882 395.751 196.63 395.751 256.429H399.751C399.751 193.995 343.536 143.036 271.877 136.228L271.499 140.21ZM288.283 135.452C282.624 135.452 277.027 135.714 271.503 136.227L271.873 140.21C277.274 139.709 282.748 139.452 288.283 139.452V135.452ZM465.432 310.51C465.432 213.805 386.097 135.452 288.283 135.452V139.452C383.934 139.452 461.432 216.06 461.432 310.51H465.432Z" fill="black" mask="url(#path-24-outside-1_342_366)"/>
<circle cx="77" cy="300" r="19" stroke="black" stroke-width="2"/>
</g>
<defs>
<clipPath id="clip0_342_366">
<rect width="496.534" height="520" fill="white"/>
</clipPath>
</defs>
</svg>
