<svg width="80" height="80" viewBox="0 0 80 80" fill="none" xmlns="http://www.w3.org/2000/svg">
<g opacity="0.8" clip-path="url(#clip0_125_227)">
<path d="M40.3999 36.8L51.1999 28.8L46.3999 38.8L30.3999 49.2L40.3999 36.8Z" fill="#F5CF51"/>
<path d="M51.6053 26.7253C43.1093 29.36 36.1679 38.7466 30.0479 47.0293C28.9973 48.448 27.9626 49.848 26.9413 51.1893C26.7465 51.4459 26.6512 51.7643 26.673 52.0857C26.6948 52.4071 26.8322 52.7097 27.0598 52.9376C27.2874 53.1656 27.5898 53.3034 27.9112 53.3256C28.2325 53.3479 28.5511 53.253 28.8079 53.0586C30.1841 52.0173 31.5672 50.9853 32.9573 49.9626C41.2453 43.8373 50.6399 36.8933 53.2746 28.3946C53.3458 28.1626 53.3525 27.9156 53.294 27.68C53.2354 27.4445 53.1138 27.2294 52.9421 27.0577C52.7705 26.8861 52.5554 26.7645 52.3199 26.7059C52.0843 26.6474 51.8373 26.6541 51.6053 26.7253ZM34.5253 45.472C39.0453 39.464 44.0079 33.4186 49.5066 30.4933C46.5813 35.992 40.5386 40.952 34.5253 45.472Z" fill="white"/>
<path d="M27.2 34.4L44.4 14.4L31.6 19.6L16 38L27.2 34.4Z" fill="#F5CF51"/>
<path d="M43.2002 56L65.2002 36.4L62.4002 48L43.2002 63.6V56Z" fill="#F5CF51"/>
<path d="M18.7998 66.8L13.5998 62.8L7.5998 64.8L2.7998 72.4V77.6L13.5998 75.2L18.7998 66.8Z" fill="#F5CF51"/>
<path d="M80 1.33333C80 0.979711 79.8595 0.640573 79.6095 0.390524C79.3594 0.140476 79.0203 0 78.6667 0C64.8613 0 53.6533 5.50667 44 13.48V13.3333C38.48 13.3333 33.2453 15.288 29.2587 18.8347C24.6853 22.912 20.6293 28.3973 16.7093 33.704C15.6613 35.1173 14.6293 36.5173 13.608 37.8587C13.4381 38.0857 13.3448 38.3608 13.3416 38.6444C13.3385 38.9279 13.4256 39.2051 13.5904 39.4358C13.7552 39.6665 13.9891 39.8389 14.2584 39.9278C14.5276 40.0168 14.8182 40.0178 15.088 39.9307L21.8933 37.664C20.4667 39.5147 19.056 41.3653 17.6693 43.1947C16.3093 44.9893 14.9547 46.768 13.6107 48.52C13.4126 48.7765 13.3147 49.0964 13.3353 49.4198C13.3559 49.7432 13.4936 50.0481 13.7227 50.2773L14.7253 51.2773L6.344 53.3733C6.1137 53.4287 5.9024 53.5447 5.73201 53.7093C5.56162 53.8738 5.43835 54.0809 5.37496 54.3092C5.31158 54.5374 5.3104 54.7784 5.37153 55.0073C5.43267 55.2361 5.5539 55.4445 5.72267 55.6107L11.2187 61.104C5.34667 62.9787 0 69.4293 0 78.6667C0 79.0203 0.140476 79.3594 0.390524 79.6095C0.640573 79.8595 0.979711 80 1.33333 80C10.5707 80 17.0187 74.6507 18.896 68.7813L24.3893 74.2747C24.5557 74.4433 24.764 74.5645 24.9928 74.6257C25.2216 74.6869 25.4626 74.6859 25.6909 74.6229C25.9192 74.5598 26.1266 74.437 26.2916 74.267C26.4565 74.097 26.5731 73.8861 26.6293 73.656L28.7227 65.2747L29.7227 66.2773C29.9511 66.5079 30.2561 66.6467 30.58 66.6674C30.904 66.688 31.2242 66.5891 31.48 66.3893C33.2512 65.0301 35.0272 63.6772 36.808 62.3307C38.6556 60.93 40.4983 59.5229 42.336 58.1093L40.0693 64.9093C39.9793 65.1796 39.9783 65.4716 40.0663 65.7426C40.1543 66.0135 40.3268 66.2491 40.5585 66.4149C40.7901 66.5807 41.0688 66.6679 41.3537 66.6638C41.6385 66.6597 41.9146 66.5644 42.1413 66.392C43.4827 65.3707 44.88 64.3387 46.296 63.2907C51.6027 59.3707 57.088 55.3173 61.1627 50.7387C64.7093 46.7573 66.6667 41.52 66.6667 36H66.52C74.4933 26.3467 80 15.1387 80 1.33333ZM18.2853 36.0533L18.8533 35.288C22.6933 30.0933 26.6667 24.72 31.032 20.8267C33.7856 18.4007 37.1777 16.8162 40.8053 16.2613C35.0133 21.5413 29.776 27.6373 24.8587 33.8613L18.2853 36.0533ZM2.712 77.288C3.24533 69.3147 8.34933 64.1173 13.464 63.3493L16.6507 66.536C15.8827 71.6507 10.6853 76.7547 2.712 77.288ZM24.6107 70.7253L9.27467 55.3893L16.9227 53.4773L26.5227 63.0773L24.6107 70.7253ZM35.1973 60.208C33.712 61.3333 32.2373 62.448 30.784 63.5627L16.4373 49.216C17.5493 47.7627 18.6693 46.288 19.7947 44.8053C35.2427 24.4373 51.208 3.38933 77.3147 2.68533C76.6107 28.792 55.5627 44.7573 35.1947 60.2053L35.1973 60.208ZM59.1707 48.9653C55.28 53.3333 49.9093 57.3067 44.712 61.1467L43.944 61.7147L46.136 55.1413C52.36 50.224 58.456 44.9867 63.736 39.1947C63.1813 42.8215 61.5967 46.2128 59.1707 48.9653Z" fill="white"/>
</g>
<defs>
<clipPath id="clip0_125_227">
<rect width="80" height="80" fill="white"/>
</clipPath>
</defs>
</svg>
