<svg width="36" height="36" viewBox="0 0 36 36" fill="none" xmlns="http://www.w3.org/2000/svg">
<g opacity="0.8" clip-path="url(#clip0_104_499)">
<path d="M18.1802 16.56L23.0402 12.96L20.8802 17.46L13.6802 22.14L18.1802 16.56Z" fill="#F5CF51"/>
<path d="M23.2224 12.0264C19.3992 13.212 16.2756 17.436 13.5216 21.1632C13.0488 21.8016 12.5832 22.4316 12.1236 23.0352C12.0359 23.1506 11.993 23.2939 12.0028 23.4385C12.0126 23.5832 12.0745 23.7193 12.1769 23.8219C12.2793 23.9245 12.4154 23.9865 12.56 23.9965C12.7046 24.0065 12.848 23.9638 12.9636 23.8764C13.5828 23.4078 14.2052 22.9434 14.8308 22.4832C18.5604 19.7268 22.788 16.602 23.9736 12.7776C24.0056 12.6732 24.0086 12.562 23.9823 12.456C23.9559 12.35 23.9012 12.2532 23.824 12.176C23.7467 12.0987 23.6499 12.044 23.5439 12.0176C23.4379 11.9913 23.3268 11.9943 23.2224 12.0264ZM15.5364 20.4624C17.5704 17.7588 19.8036 15.0384 22.278 13.722C20.9616 16.1964 18.2424 18.4284 15.5364 20.4624Z" fill="#6B7280"/>
<path d="M12.2402 15.48L19.9802 6.47998L14.2202 8.81998L7.2002 17.1L12.2402 15.48Z" fill="#F5CF51"/>
<path d="M19.4399 25.2L29.3399 16.38L28.0799 21.6L19.4399 28.62V25.2Z" fill="#F5CF51"/>
<path d="M8.45977 30.06L6.11977 28.26L3.41977 29.16L1.25977 32.58V34.92L6.11977 33.84L8.45977 30.06Z" fill="#F5CF51"/>
<path d="M36 0.6C36 0.44087 35.9368 0.288258 35.8243 0.175736C35.7117 0.0632141 35.5591 0 35.4 0C29.1876 0 24.144 2.478 19.8 6.066V6C17.316 6 14.9604 6.8796 13.1664 8.4756C11.1084 10.3104 9.2832 12.7788 7.5192 15.1668C7.0476 15.8028 6.5832 16.4328 6.1236 17.0364C6.04714 17.1385 6.00515 17.2624 6.00373 17.39C6.0023 17.5176 6.04151 17.6423 6.11568 17.7461C6.18984 17.8499 6.29512 17.9275 6.41627 17.9675C6.53742 18.0076 6.66817 18.008 6.7896 17.9688L9.852 16.9488C9.21 17.7816 8.5752 18.6144 7.9512 19.4376C7.3392 20.2452 6.7296 21.0456 6.1248 21.834C6.03566 21.9494 5.99161 22.0934 6.00088 22.2389C6.01016 22.3844 6.07213 22.5216 6.1752 22.6248L6.6264 23.0748L2.8548 24.018C2.75116 24.0429 2.65608 24.0951 2.5794 24.1692C2.50273 24.2432 2.44726 24.3364 2.41873 24.4391C2.39021 24.5418 2.38968 24.6503 2.41719 24.7533C2.4447 24.8563 2.49926 24.95 2.5752 25.0248L5.0484 27.4968C2.406 28.3404 0 31.2432 0 35.4C0 35.5591 0.0632141 35.7117 0.175736 35.8243C0.288258 35.9368 0.44087 36 0.6 36C4.7568 36 7.6584 33.5928 8.5032 30.9516L10.9752 33.4236C11.05 33.4995 11.1438 33.554 11.2468 33.5816C11.3497 33.6091 11.4582 33.6087 11.5609 33.5803C11.6637 33.5519 11.757 33.4966 11.8312 33.4201C11.9054 33.3437 11.9579 33.2487 11.9832 33.1452L12.9252 29.3736L13.3752 29.8248C13.478 29.9286 13.6153 29.991 13.761 30.0003C13.9068 30.0096 14.0509 29.9651 14.166 29.8752C14.963 29.2635 15.7622 28.6547 16.5636 28.0488C17.395 27.4185 18.2242 26.7853 19.0512 26.1492L18.0312 29.2092C17.9907 29.3308 17.9902 29.4622 18.0298 29.5842C18.0694 29.7061 18.1471 29.8121 18.2513 29.8867C18.3556 29.9613 18.481 30.0006 18.6091 29.9987C18.7373 29.9968 18.8616 29.954 18.9636 29.8764C19.5672 29.4168 20.196 28.9524 20.8332 28.4808C23.2212 26.7168 25.6896 24.8928 27.5232 22.8324C29.1192 21.0408 30 18.684 30 16.2H29.934C33.522 11.856 36 6.8124 36 0.6ZM8.2284 16.224L8.484 15.8796C10.212 13.542 12 11.124 13.9644 9.372C15.2035 8.28031 16.73 7.56727 18.3624 7.3176C15.756 9.6936 13.3992 12.4368 11.1864 15.2376L8.2284 16.224ZM1.2204 34.7796C1.4604 31.1916 3.7572 28.8528 6.0588 28.5072L7.4928 29.9412C7.1472 32.2428 4.8084 34.5396 1.2204 34.7796ZM11.0748 31.8264L4.1736 24.9252L7.6152 24.0648L11.9352 28.3848L11.0748 31.8264ZM15.8388 27.0936C15.1704 27.6 14.5068 28.1016 13.8528 28.6032L7.3968 22.1472C7.8972 21.4932 8.4012 20.8296 8.9076 20.1624C15.8592 10.9968 23.0436 1.5252 34.7916 1.2084C34.4748 12.9564 25.0032 20.1408 15.8376 27.0924L15.8388 27.0936ZM26.6268 22.0344C24.876 24 22.4592 25.788 20.1204 27.516L19.7748 27.7716L20.7612 24.8136C23.562 22.6008 26.3052 20.244 28.6812 17.6376C28.4316 19.2697 27.7185 20.7958 26.6268 22.0344Z" fill="#6B7280"/>
</g>
<defs>
<clipPath id="clip0_104_499">
<rect width="36" height="36" fill="white"/>
</clipPath>
</defs>
</svg>
