<svg width="184" height="44" viewBox="0 0 184 44" fill="none" xmlns="http://www.w3.org/2000/svg">
<path fill-rule="evenodd" clip-rule="evenodd" d="M35.0117 17.506C35.0117 27.1743 27.0748 35.012 17.2841 35.012C10.2017 35.012 4.08929 30.9106 1.24966 24.9818C3.1739 26.1999 5.52129 26.9153 8.05482 26.9153C8.90924 26.9153 9.74249 26.834 10.5455 26.6794L10.5453 26.6784C10.3555 26.6905 10.1643 26.6966 9.97177 26.6966C4.46451 26.6966 0 21.7 0 15.5365C0 15.3708 0.00322752 15.2059 0.00961604 15.0419C1.60764 20.234 7.24769 24.0707 13.9602 24.0707C21.9151 24.0707 28.3639 18.6823 28.3639 12.0354C28.3639 5.85299 22.7851 0.759369 15.6044 0.0775569C16.1573 0.0262402 16.7176 0 17.2841 0C27.0748 0 35.0117 7.83769 35.0117 17.506Z" fill="#41902D"/>
<path d="M55.1848 33.8494C53.7886 33.8494 52.5278 33.6642 51.4024 33.2938C50.2769 32.9377 49.3082 32.4177 48.4961 31.7339C47.6698 31.05 47.0359 30.238 46.5942 29.2977C46.1668 28.3575 45.9531 27.3175 45.9531 26.1778C45.9531 25.2232 46.1027 24.3257 46.4019 23.4852C46.7153 22.6304 47.1498 21.8896 47.7054 21.2627C48.261 20.6359 48.9093 20.1515 49.6501 19.8096C50.3909 19.4535 51.1744 19.2754 52.0007 19.2754C53.0265 19.2754 53.8884 19.5318 54.5864 20.0447C55.2845 20.5576 55.719 21.2627 55.89 22.1603C54.3656 22.1603 53.1547 22.5663 52.2572 23.3783C51.8298 23.763 51.495 24.2331 51.2528 24.7887C51.0248 25.3443 50.9109 25.9569 50.9109 26.6265C50.9109 27.9087 51.2813 28.9273 52.0221 29.6824C52.7771 30.4232 53.7886 30.7936 55.0566 30.7936C55.8116 30.7936 56.5168 30.6582 57.1722 30.3876C57.8275 30.1026 58.3974 29.718 58.8817 29.2336C59.3661 28.7492 59.7365 28.1723 59.993 27.5027C60.2636 26.8188 60.399 26.0923 60.399 25.323C60.399 23.8983 59.9146 22.4167 58.9458 20.8781C58.5612 20.2797 58.1338 19.6956 57.6637 19.1258C57.2078 18.5417 56.5667 17.7724 55.7404 16.8179C54.9996 15.9631 54.3799 15.2223 53.8812 14.5954C53.3826 13.9686 52.9339 13.3275 52.535 12.6722C51.5662 11.0908 51.0818 9.53796 51.0818 8.0136C51.0818 6.87389 51.324 5.81965 51.8084 4.8509C52.2928 3.8679 52.9837 3.01311 53.8812 2.28655C54.7788 1.55998 55.8259 0.997248 57.0226 0.598349C58.2193 0.19945 59.5086 0 60.8905 0C63.2411 0 65.1288 0.55561 66.5534 1.66683C67.2372 2.20819 67.7572 2.8564 68.1134 3.61146C68.4838 4.36652 68.669 5.20706 68.669 6.13307C68.669 7.34402 68.3627 8.33414 67.7501 9.10345C67.4652 9.47386 67.109 9.75878 66.6816 9.95823C66.2685 10.1577 65.8269 10.2574 65.3567 10.2574C64.2597 10.2574 63.3693 9.80152 62.6855 8.88975C63.2411 8.49085 63.6756 7.96374 63.9891 7.3084C64.3167 6.63882 64.4806 5.9265 64.4806 5.17144C64.4806 4.23118 64.2028 3.49037 63.6472 2.949C63.0915 2.39339 62.3294 2.11559 61.3606 2.11559C60.7765 2.11559 60.2351 2.22244 59.7365 2.43613C59.2521 2.64983 58.839 2.95613 58.4971 3.35503C58.1409 3.75393 57.8631 4.22406 57.6637 4.76542C57.4785 5.30678 57.3859 5.89801 57.3859 6.5391C57.3859 7.45087 57.5996 8.32702 58.0269 9.16756C58.4543 10.0081 59.0669 10.8842 59.8647 11.796C60.5771 12.6366 61.3464 13.47 62.1726 14.2963C64.0959 16.2908 65.4564 18.2354 66.2542 20.1302C66.7244 21.2556 66.9594 22.4951 66.9594 23.8485C66.9594 25.2731 66.6674 26.598 66.0833 27.8232C65.4992 29.0342 64.6658 30.0884 63.583 30.9859C62.5003 31.8977 61.2395 32.6029 59.8006 33.1015C58.3617 33.6001 56.8231 33.8494 55.1848 33.8494Z" fill="black"/>
<path d="M73.007 33.3152C71.6109 33.3152 70.5068 32.9021 69.6947 32.0758C68.783 31.164 68.3271 29.832 68.3271 28.0797C68.3271 27.2534 68.4411 26.2989 68.669 25.2161L70.4649 16.7274C71.1496 13.4914 74.0058 11.1763 77.3134 11.1763H77.9434L74.8021 26.0495C74.7166 26.4057 74.6739 26.7761 74.6739 27.1608C74.6739 27.7164 74.7665 28.158 74.9517 28.4857C75.1654 28.8846 75.5073 29.084 75.9774 29.084C76.7752 29.084 77.4946 28.7207 78.1357 27.9942C78.6486 27.3816 79.0974 26.4556 79.482 25.2161L81.1476 17.3438C81.9082 13.7485 85.0816 11.1763 88.7564 11.1763L85.6151 26.0495C85.4584 26.7904 85.38 27.3175 85.38 27.6309C85.38 28.0868 85.5011 28.4429 85.7433 28.6994C85.9855 28.9558 86.363 29.084 86.8759 29.084C87.5597 29.084 88.2293 28.8418 88.8846 28.3575C89.54 27.8731 90.1597 27.2035 90.7438 26.3487C91.2852 25.5652 91.7838 24.6534 92.2397 23.6134C92.7098 22.5734 93.1087 21.4978 93.4364 20.3866C93.7498 19.3039 93.992 18.2496 94.1629 17.2239C94.3481 16.1839 94.4407 15.265 94.4407 14.4672C94.3838 14.5954 94.1772 14.7023 93.821 14.7878C93.5931 14.859 93.3366 14.8946 93.0517 14.8946C92.5531 14.8946 92.1613 14.6524 91.8764 14.168C91.6057 13.7549 91.4704 13.2563 91.4704 12.6722C91.4704 11.9599 91.6983 11.39 92.1542 10.9626C92.6101 10.521 93.2868 10.3001 94.1843 10.3001C95.1531 10.3001 95.8725 10.6919 96.3426 11.4755C96.7415 12.1308 96.941 13.007 96.941 14.1039C96.941 15.3149 96.8341 16.6255 96.6204 18.0359C96.421 19.4463 96.1147 20.8354 95.7015 22.203C94.7043 25.4512 93.358 28.0084 91.6627 29.8747C89.6112 32.1684 87.2107 33.3152 84.4611 33.3152C83.0223 33.3152 81.854 33.0089 80.9565 32.3963C80.059 31.7837 79.482 30.8648 79.2256 29.6396C78.2996 31.05 77.2168 32.0544 75.9774 32.6527C75.0941 33.0944 74.104 33.3152 73.007 33.3152Z" fill="black"/>
<path d="M104.912 8.80427C104.442 8.80427 103.993 8.7188 103.566 8.54784C103.138 8.36264 102.768 8.11332 102.454 7.7999C102.141 7.50073 101.892 7.13745 101.706 6.71005C101.535 6.28266 101.45 5.8339 101.45 5.36377C101.45 4.89364 101.535 4.44488 101.706 4.01748C101.892 3.59009 102.141 3.21256 102.454 2.8849C102.768 2.55723 103.138 2.30792 103.566 2.13696C103.993 1.95176 104.442 1.85915 104.912 1.85915C105.382 1.85915 105.831 1.95176 106.258 2.13696C106.686 2.30792 107.063 2.55723 107.391 2.8849C107.718 3.21256 107.968 3.59009 108.139 4.01748C108.324 4.44488 108.416 4.89364 108.416 5.36377C108.416 5.8339 108.324 6.28266 108.139 6.71005C107.968 7.13745 107.718 7.50073 107.391 7.7999C107.063 8.11332 106.686 8.36264 106.258 8.54784C105.831 8.7188 105.382 8.80427 104.912 8.80427ZM101.941 33.3152C100.545 33.3152 99.4412 32.9021 98.6292 32.0758C97.7174 31.164 97.2615 29.832 97.2615 28.0797C97.2615 27.2534 97.3755 26.2989 97.6034 25.2161L99.269 17.3438C100.03 13.7485 103.203 11.1763 106.878 11.1763L103.737 26.0495C103.623 26.4199 103.566 26.8901 103.566 27.4599C103.566 28.0583 103.701 28.4785 103.972 28.7207C104.257 28.9629 104.712 29.084 105.339 29.084C105.767 29.084 106.18 28.9914 106.579 28.8062C106.992 28.6068 107.369 28.3361 107.711 27.9942C108.409 27.2961 108.936 26.3701 109.293 25.2161H111.13C110.347 27.4243 109.364 29.1837 108.181 30.4944C107.184 31.5629 106.059 32.3322 104.805 32.8023C103.893 33.1442 102.939 33.3152 101.941 33.3152Z" fill="black"/>
<path d="M125.106 33.3152C123.297 33.3152 121.958 32.8023 121.089 31.7766C120.334 30.8933 119.956 29.7607 119.956 28.3788C119.956 27.7235 120.034 26.9613 120.191 26.0923C120.362 25.2232 120.611 24.1049 120.939 22.7373C121.267 21.3411 121.509 20.2299 121.666 19.4036C121.837 18.5631 121.922 17.8365 121.922 17.2239C121.922 15.728 121.395 14.9801 120.341 14.9801C119.6 14.9801 118.916 15.3719 118.289 16.1554C117.762 16.825 117.306 17.7795 116.922 19.0189L113.951 33.0588H107.647L111.276 15.9324C111.864 13.1597 114.312 11.1763 117.146 11.1763H118.588L118.118 13.4415C118.973 12.487 119.892 11.8174 120.875 11.4327C121.602 11.1478 122.385 11.0053 123.226 11.0053C124.707 11.0053 125.875 11.39 126.73 12.1593C127.642 12.9998 128.098 14.2606 128.098 15.9417C128.098 16.9532 127.913 18.271 127.542 19.8951C127.443 20.3652 127.279 21.0704 127.051 22.0107C126.638 23.592 126.338 24.8528 126.153 25.7931C126.039 26.3915 125.982 26.8758 125.982 27.2462C125.982 27.8303 126.11 28.2862 126.367 28.6139C126.638 28.9273 127.093 29.084 127.735 29.084C128.604 29.084 129.337 28.7279 129.936 28.0155C130.392 27.4742 130.883 26.541 131.41 25.2161H133.248C132.165 28.4216 130.798 30.6654 129.145 31.9475C127.977 32.8593 126.63 33.3152 125.106 33.3152Z" fill="black"/>
<path d="M139.146 44C138.462 44 137.821 43.9074 137.223 43.7222C136.639 43.5512 136.133 43.2877 135.705 42.9315C135.25 42.5754 134.893 42.1266 134.637 41.5852C134.381 41.0581 134.252 40.4455 134.252 39.7475C134.252 38.0949 135.029 36.6774 136.582 35.4949C137.75 34.6259 139.353 33.8708 141.39 33.2297L141.924 30.9218C140.428 32.5174 138.676 33.3152 136.667 33.3152C135 33.3152 133.654 32.7952 132.628 31.7552C131.432 30.53 130.833 28.7065 130.833 26.2846C130.833 25.2589 130.94 24.1761 131.154 23.0364C131.353 21.8967 131.652 20.7712 132.051 19.66C132.963 17.1527 134.21 15.1297 135.791 13.5911C137.614 11.8388 139.716 10.9626 142.095 10.9626C143.277 10.9626 144.161 11.1692 144.745 11.5823C145.343 11.9812 145.642 12.5155 145.642 13.185V13.4415C145.916 12.1222 147.078 11.1763 148.426 11.1763H152.416L148.078 31.4774C149.46 31.0215 150.564 30.3377 151.391 29.4259C152.288 28.4429 153.022 27.0397 153.592 25.2161H155.43C154.646 27.809 153.478 29.8106 151.925 31.221C150.785 32.2467 149.375 32.9733 147.694 33.4007L147.031 36.5634C146.476 39.3557 145.364 41.3787 143.698 42.6323C142.487 43.5441 140.969 44 139.146 44ZM139.509 29.084C140.136 29.084 140.799 28.792 141.497 28.2079C142.252 27.5525 142.757 26.7049 143.014 25.6649L145.236 15.3006C145.236 15.1582 145.201 14.9943 145.129 14.8091C145.072 14.6239 144.987 14.453 144.873 14.2963C144.531 13.8831 144.054 13.6765 143.441 13.6765C142.857 13.6765 142.287 13.8689 141.732 14.2535C141.19 14.6382 140.677 15.1724 140.193 15.8562C139.338 17.0957 138.633 18.7126 138.077 20.7071C137.821 21.5904 137.629 22.4666 137.5 23.3356C137.372 24.1904 137.308 24.9668 137.308 25.6649C137.308 27.118 137.579 28.101 138.12 28.6139C138.305 28.8133 138.512 28.9416 138.74 28.9985C138.968 29.0555 139.224 29.084 139.509 29.084ZM138.142 40.5809C138.597 40.5809 139.068 40.2603 139.552 39.6192C140.036 38.9924 140.414 38.0165 140.685 36.6916L140.941 35.4308C139.616 35.9294 138.626 36.4352 137.971 36.948C137.102 37.6034 136.667 38.3371 136.667 39.1491C136.667 39.5338 136.788 39.8543 137.03 40.1107C137.301 40.4242 137.671 40.5809 138.142 40.5809Z" fill="black"/>
<path d="M160.9 8.80427C160.43 8.80427 159.981 8.7188 159.554 8.54784C159.127 8.36264 158.756 8.11332 158.443 7.7999C158.129 7.50073 157.88 7.13745 157.695 6.71005C157.524 6.28266 157.438 5.8339 157.438 5.36377C157.438 4.89364 157.524 4.44488 157.695 4.01748C157.88 3.59009 158.129 3.21256 158.443 2.8849C158.756 2.55723 159.127 2.30792 159.554 2.13696C159.981 1.95176 160.43 1.85915 160.9 1.85915C161.37 1.85915 161.819 1.95176 162.246 2.13696C162.674 2.30792 163.051 2.55723 163.379 2.8849C163.707 3.21256 163.956 3.59009 164.127 4.01748C164.312 4.44488 164.405 4.89364 164.405 5.36377C164.405 5.8339 164.312 6.28266 164.127 6.71005C163.956 7.13745 163.707 7.50073 163.379 7.7999C163.051 8.11332 162.674 8.36264 162.246 8.54784C161.819 8.7188 161.37 8.80427 160.9 8.80427ZM157.93 33.3152C156.534 33.3152 155.43 32.9021 154.618 32.0758C153.706 31.164 153.25 29.832 153.25 28.0797C153.25 27.2534 153.364 26.2989 153.592 25.2161L155.723 15.1414C156.212 12.83 158.252 11.1763 160.615 11.1763H162.866L159.725 26.0495C159.611 26.4199 159.554 26.8901 159.554 27.4599C159.554 28.0583 159.689 28.4785 159.96 28.7207C160.245 28.9629 160.701 29.084 161.328 29.084C161.755 29.084 162.168 28.9914 162.567 28.8062C162.98 28.6068 163.358 28.3361 163.7 27.9942C164.398 27.2961 164.925 26.3701 165.281 25.2161H167.119C166.335 27.4243 165.352 29.1837 164.17 30.4944C163.172 31.5629 162.047 32.3322 160.793 32.8023C159.882 33.1442 158.927 33.3152 157.93 33.3152Z" fill="black"/>
<path d="M171.564 33.3152C169.412 33.3152 167.753 32.7738 166.585 31.6911C165.345 30.5372 164.725 28.7635 164.725 26.3701C164.725 25.4726 164.818 24.4753 165.003 23.3783C165.174 22.2814 165.438 21.1844 165.794 20.0874C166.193 18.8622 166.698 17.7011 167.311 16.6042C167.938 15.5072 168.664 14.5384 169.491 13.6979C171.4 11.7604 173.75 10.7916 176.543 10.7916C178.324 10.7916 179.62 11.219 180.432 12.0738C181.059 12.7434 181.372 13.7122 181.372 14.9801C181.372 16.2195 181.102 17.3877 180.56 18.4847C180.019 19.5674 179.271 20.5291 178.316 21.3696C177.362 22.1959 176.279 22.8583 175.068 23.357C173.857 23.8413 172.604 24.1263 171.307 24.2118C171.236 24.9526 171.2 25.5367 171.2 25.9641C171.2 27.3887 171.471 28.3717 172.012 28.9131C172.483 29.3974 173.266 29.6396 174.363 29.6396C175.944 29.6396 177.39 29.2122 178.701 28.3575C179.257 28.0013 179.791 27.581 180.304 27.0966C180.817 26.598 181.415 25.9712 182.099 25.2161H183.595C182.213 27.5525 180.624 29.4117 178.829 30.7936C176.621 32.4747 174.199 33.3152 171.564 33.3152ZM171.649 22.1175C172.461 22.0605 173.252 21.8255 174.021 21.4123C174.79 20.9992 175.474 20.4578 176.073 19.7882C176.671 19.1044 177.141 18.3422 177.483 17.5017C177.825 16.6469 177.996 15.7779 177.996 14.8946C177.996 14.3105 177.91 13.8689 177.739 13.5697C177.583 13.2563 177.305 13.0996 176.906 13.0996C176.379 13.0996 175.845 13.356 175.303 13.8689C174.776 14.3817 174.263 15.0869 173.765 15.9845C173.309 16.825 172.896 17.7795 172.525 18.848C172.155 19.9165 171.863 21.0063 171.649 22.1175Z" fill="black"/>
</svg>
