<svg width="17" height="17" viewBox="0 0 17 17" fill="none" xmlns="http://www.w3.org/2000/svg">
<g opacity="0.5">
<path d="M4.68516 11.0518L4.90938 10.9413L4.68516 11.0518C5.53349 12.7719 6.65862 14.3632 7.78235 15.421C7.96886 15.6174 8.22843 15.7298 8.49997 15.7298C8.76805 15.7298 9.02546 15.6198 9.21157 15.4275C10.4055 14.3081 11.5161 12.696 12.3287 11.0444C13.1404 9.39459 13.6704 7.67338 13.6704 6.33702C13.6704 3.53794 11.3461 1.27014 8.49997 1.27014C5.65383 1.27014 3.32959 3.53794 3.32959 6.33704C3.32959 7.60377 3.83187 9.3217 4.68516 11.0518ZM8.50053 14.5193C7.46276 13.5206 6.46612 12.0657 5.72263 10.5654C4.9573 9.02099 4.47787 7.4641 4.47787 6.33705C4.47787 4.18228 6.27657 2.41844 8.49997 2.41844C10.7234 2.41844 12.5221 4.18228 12.5221 6.33705C12.5221 7.46761 12.0423 9.02668 11.2764 10.5716C10.5333 12.0708 9.53752 13.5232 8.50053 14.5193ZM8.49997 3.73604C6.93857 3.73604 5.66872 5.006 5.66872 6.56745C5.66872 8.12863 6.93862 9.39828 8.49997 9.39828C10.0612 9.39828 11.331 8.12861 11.331 6.56745C11.331 5.00602 10.0613 3.73604 8.49997 3.73604ZM8.49997 8.25C7.57215 8.25 6.817 7.49493 6.817 6.56745C6.817 5.63957 7.57222 4.88432 8.49997 4.88432C9.42755 4.88432 10.1827 5.63954 10.1827 6.56745C10.1827 7.49496 9.42762 8.25 8.49997 8.25Z" fill="black" stroke="black" stroke-width="0.5"/>
</g>
</svg>
