<svg width="17" height="17" viewBox="0 0 17 17" fill="none" xmlns="http://www.w3.org/2000/svg">
<g opacity="0.5">
<path d="M14.2603 3.28H2.74027C2.45914 3.28 2.18953 3.39168 1.99074 3.59047C1.79195 3.78926 1.68027 4.05888 1.68027 4.34V12.66C1.68027 12.9411 1.79195 13.2107 1.99074 13.4095C2.18953 13.6083 2.45914 13.72 2.74027 13.72H14.2603C14.5414 13.72 14.811 13.6083 15.0098 13.4095C15.2086 13.2107 15.3203 12.9411 15.3203 12.66V4.34C15.3203 4.05888 15.2086 3.78926 15.0098 3.59047C14.811 3.39168 14.5414 3.28 14.2603 3.28ZM3.29608 4.77675C3.32278 4.7657 3.35138 4.76 3.38027 4.76H13.6203C13.6492 4.76 13.6778 4.7657 13.7045 4.77675C13.7312 4.78781 13.7554 4.80401 13.7758 4.82444C13.7963 4.84487 13.8125 4.86912 13.8235 4.89581C13.8346 4.9225 13.8403 4.95111 13.8403 4.98V12.02C13.8403 12.0784 13.8171 12.1343 13.7758 12.1756C13.7346 12.2168 13.6786 12.24 13.6203 12.24H3.38027C3.32193 12.24 3.26597 12.2168 3.22471 12.1756C3.18345 12.1343 3.16027 12.0784 3.16027 12.02V4.98C3.16027 4.95111 3.16596 4.92251 3.17702 4.89581C3.18808 4.86912 3.20428 4.84487 3.22471 4.82444C3.24514 4.80401 3.26939 4.78781 3.29608 4.77675Z" fill="black" stroke="black" stroke-width="0.2"/>
<path d="M8.30781 8.40983L2.54087 4.73852L2.4565 4.68481L2.4028 4.76918L1.71544 5.84918L1.66176 5.93354L1.7461 5.98723L7.73841 9.80194C7.73841 9.80195 7.73842 9.80195 7.73842 9.80195C7.90857 9.9103 8.10609 9.96786 8.30781 9.96786C8.50952 9.96786 8.70705 9.9103 8.87719 9.80195C8.87719 9.80195 8.8772 9.80195 8.8772 9.80194L14.8695 5.98723L14.9539 5.93354L14.9002 5.84918L14.2128 4.76918L14.1591 4.68481L14.0747 4.73852L8.30781 8.40983Z" fill="black" stroke="black" stroke-width="0.2"/>
</g>
</svg>
