<svg width="17" height="17" viewBox="0 0 17 17" fill="none" xmlns="http://www.w3.org/2000/svg">
<g opacity="0.5">
<path d="M9.75653 6.6871C9.63014 6.56839 9.45984 6.49534 9.27253 6.49534C8.88191 6.49534 8.56527 6.81199 8.56527 7.20259C8.56527 7.37538 8.62744 7.53385 8.73039 7.65664M9.75653 6.6871L8.73039 7.65664M9.75653 6.6871C9.86444 6.76933 9.97007 6.85867 10.0697 6.95828C10.0697 6.95829 10.0697 6.9583 10.0697 6.9583L10.119 7.00754L10.1191 7.0076C11.3198 8.20921 11.2129 10.1009 10.021 11.2944L10.0209 11.2945L7.33608 13.9801L7.33605 13.9802C6.13796 15.1774 4.17858 15.1774 2.98049 13.9802L2.98048 13.9801L2.93043 13.9301C2.93042 13.9301 2.93042 13.9301 2.93042 13.9301C1.73228 12.7328 1.73235 10.7726 2.93038 9.5737L2.93275 9.57133L2.93279 9.57137L4.1612 8.42191C4.20085 8.37453 4.24612 8.33233 4.29577 8.29599L4.30387 8.28841L4.40264 8.19601L4.41619 8.22373C4.51545 8.17617 4.62665 8.14951 4.74393 8.14951C5.16343 8.14951 5.50349 8.48957 5.50349 8.90906C5.50349 9.14822 5.39273 9.3614 5.22032 9.50044L4.03773 10.6826L4.03766 10.6827C3.44748 11.2714 3.44736 12.232 4.03774 12.8223L4.03777 12.8223L4.08816 12.8728C4.6785 13.4623 5.63843 13.4623 6.22874 12.8728L8.91433 10.188C8.91433 10.188 8.91434 10.188 8.91434 10.188C9.21309 9.88919 9.40714 9.48214 9.45161 9.077C9.49597 8.67278 9.39129 8.27716 9.10226 7.98849L9.10221 7.98844L9.05216 7.93837C9.00499 7.89121 8.95416 7.84881 8.8985 7.80289C8.83631 7.76408 8.78076 7.7159 8.73363 7.66047L8.73004 7.65693L8.73039 7.65664M9.75653 6.6871L8.73039 7.65664M8.73013 7.65633C8.72939 7.65544 8.72852 7.65434 8.72801 7.65369L8.73013 7.65633ZM8.73013 7.65633C8.7302 7.65641 8.73027 7.6565 8.73034 7.65658L8.73013 7.65633Z" fill="black" stroke="black" stroke-width="0.2"/>
<path d="M9.53453 2.96995L9.53452 2.96997L6.8497 5.65557C6.84969 5.65558 6.84969 5.65558 6.84969 5.65558C5.65463 6.85065 5.58483 8.58772 6.78584 9.78952L6.78641 9.79008L6.83514 9.83806C6.83523 9.83815 6.83533 9.83824 6.83542 9.83834C6.88862 9.8915 6.94349 9.94144 6.99904 9.98901C7.04367 10.0378 7.09539 10.08 7.15253 10.1139L7.21459 10.1636L7.22715 10.1522C7.30953 10.1882 7.4005 10.2083 7.49606 10.2083C7.86791 10.2083 8.16934 9.90682 8.16934 9.53501C8.16934 9.43079 8.14557 9.33185 8.10309 9.24353C8.03408 9.08957 7.91358 8.97882 7.8253 8.89769C7.80362 8.87775 7.78387 8.85961 7.76732 8.84305L7.76673 8.84247L7.71803 8.79457C7.71794 8.79447 7.71784 8.79438 7.71775 8.79428C7.42784 8.5042 7.33833 8.15125 7.39363 7.79406C7.44946 7.43342 7.65396 7.06601 7.95702 6.76295L10.6434 4.07812L10.6435 4.07801C11.2322 3.48785 12.1924 3.48772 12.7827 4.0781L12.7833 4.07869L12.8328 4.12736C12.8329 4.12745 12.833 4.12754 12.8331 4.12763C13.4232 4.71803 13.423 5.6788 12.8329 6.2682L12.8328 6.26827L11.6552 7.44662C11.4735 7.58415 11.3557 7.80248 11.3557 8.04834C11.3557 8.46488 11.6934 8.80257 12.1099 8.80257C12.2182 8.80257 12.3212 8.77966 12.4144 8.73849L12.4312 8.7674L12.5229 8.68275L12.5357 8.67091C12.596 8.62962 12.6497 8.57983 12.6956 8.5234L13.9364 7.3784L13.9365 7.37846L13.9393 7.37565C15.1383 6.17757 15.1383 4.2181 13.9402 3.02002L13.8901 2.96995C12.692 1.77186 10.7326 1.77186 9.53453 2.96995Z" fill="black" stroke="black" stroke-width="0.2"/>
</g>
</svg>
