<svg width="17" height="17" viewBox="0 0 17 17" fill="none" xmlns="http://www.w3.org/2000/svg">
<g opacity="0.5" clip-path="url(#clip0_104_885)">
<path d="M4.18138 2.05903C4.18382 2.05702 4.18633 2.05509 4.18891 2.05323L4.26358 1.99936L4.26518 1.99821L4.26518 1.99822C4.97108 1.50295 5.92711 1.24218 6.73164 1.39222C6.9254 1.42832 7.11223 1.53534 7.28634 1.68177C7.4614 1.829 7.63161 2.0228 7.79254 2.24563C8.11439 2.6913 8.40902 3.26696 8.63709 3.85833C8.86512 4.4496 9.02968 5.0645 9.08676 5.59032C9.11529 5.85311 9.11755 6.09874 9.0849 6.31044C9.05252 6.52041 8.98363 6.71085 8.8578 6.84782L8.85775 6.84787C8.69797 7.02165 8.4274 7.17336 8.02005 7.36618L8.01917 7.3666L7.85703 7.44206L7.85551 7.44277L7.85551 7.44277L7.64484 7.53797L7.64422 7.53825C7.56962 7.57155 7.49746 7.60371 7.42162 7.63621L7.42156 7.63624L7.19318 7.734C7.34061 8.10139 7.5527 8.52926 7.7898 8.9301C7.78988 8.93024 7.78996 8.93037 7.79004 8.9305L7.84563 9.02333C7.84573 9.02349 7.84582 9.02365 7.84592 9.02381C8.03825 9.34001 8.22623 9.60414 8.382 9.77993L8.3823 9.78026C8.39094 9.79008 8.39971 9.7998 8.40857 9.80942C8.60075 9.71441 8.71707 9.65802 8.85497 9.59382L8.85551 9.59357L8.99791 9.52797L8.99877 9.52757C9.06191 9.49897 9.1235 9.47169 9.18353 9.44573L9.18362 9.44569C9.75176 9.20042 10.1759 9.06517 10.5442 9.13123L10.5444 9.13126C10.8723 9.19042 11.2062 9.41876 11.515 9.72247C11.8273 10.0297 12.1301 10.4299 12.3947 10.8621C12.6595 11.2946 12.8887 11.7633 13.052 12.2096C13.2145 12.6537 13.3153 13.0852 13.3152 13.4407L4.18138 2.05903ZM4.18138 2.05903C1.96207 3.72092 1.73232 7.31205 3.64436 10.8594L3.64437 10.8594C5.51732 14.3335 8.52037 16.2344 11.6601 15.2649M4.18138 2.05903L13.3152 13.4408C13.3152 13.8724 13.1005 14.2672 12.7942 14.58C12.4873 14.8933 12.078 15.1359 11.6601 15.2649M11.6601 15.2649L11.6159 15.1215M11.6601 15.2649L11.6159 15.1215M11.6159 15.1215C12.4065 14.8775 13.1652 14.2018 13.1652 13.4407L11.6159 15.1215ZM8.93277 11.0749L9.3055 10.8924C9.30573 10.8923 9.30596 10.8922 9.30619 10.8921C9.36335 10.8648 9.41666 10.8395 9.47606 10.8121C9.4762 10.8121 9.47634 10.812 9.47648 10.8119L9.64457 10.7357L9.64631 10.735L9.72617 10.7L9.72693 10.6997C9.88373 10.63 10.0443 10.5691 10.2079 10.5174L10.2633 10.5019C10.2636 10.5019 10.2638 10.5018 10.2641 10.5017C10.2907 10.4947 10.3124 10.4895 10.3301 10.4852C10.3303 10.4852 10.3304 10.4852 10.3306 10.4851C10.3613 10.4976 10.4053 10.5234 10.4626 10.5705C10.5377 10.6322 10.6231 10.7199 10.7151 10.8301C10.8988 11.0501 11.0985 11.3473 11.2835 11.6711C11.4682 11.9946 11.636 12.3407 11.757 12.6571C11.8796 12.9776 11.9486 13.253 11.9485 13.4407V13.4407C11.9485 13.4403 11.9485 13.4405 11.9483 13.4413C11.9471 13.4458 11.9406 13.4702 11.9078 13.5159C11.8728 13.5645 11.8194 13.6214 11.7509 13.6796C11.6133 13.7967 11.4315 13.9053 11.2569 13.9593C8.88877 14.6904 6.47359 13.2273 4.84737 10.2106L4.84737 10.2106C4.02086 8.67763 3.66701 7.19927 3.71824 5.96041C3.76948 4.72135 4.22433 3.73217 5.00451 3.15003L5.00453 3.15001C5.43505 2.82862 6.04729 2.65955 6.47057 2.73375C6.47365 2.73581 6.4789 2.73958 6.48644 2.74597C6.50662 2.76308 6.53368 2.79075 6.56701 2.83084C6.63334 2.91063 6.71461 3.02758 6.80403 3.17625C6.98243 3.47287 7.1861 3.88371 7.36112 4.3478L7.36113 4.34785C7.53654 4.81254 7.66808 5.27837 7.729 5.64155L7.73952 5.7057C7.73953 5.70575 7.73953 5.7058 7.73954 5.70585C7.7533 5.79116 7.76161 5.87725 7.76443 5.96358L7.73738 5.97867C7.62382 6.0403 7.47162 6.11504 7.2858 6.20045C7.28561 6.20054 7.28542 6.20062 7.28523 6.20071L6.97824 6.33859C6.97805 6.33868 6.97786 6.33876 6.97767 6.33884C6.86891 6.38659 6.75926 6.43426 6.62504 6.49118L6.62487 6.49125L6.1342 6.70005L6.13417 6.69997L6.12945 6.70217L6.09225 6.71955C6.07311 6.71723 6.05168 6.7182 6.02863 6.72487C5.97812 6.73948 5.94941 6.77401 5.93813 6.78884C5.91472 6.81961 5.89608 6.86233 5.87977 6.90248C5.84371 6.99123 5.78711 7.15198 5.69064 7.42598L5.69012 7.42746C5.68062 7.45442 5.67903 7.48354 5.68553 7.51138C5.85263 8.22708 6.2848 9.15342 6.7795 9.90052C7.02724 10.2747 7.29476 10.6101 7.55814 10.8541C7.8149 11.0919 8.09457 11.2679 8.3647 11.2683C8.37028 11.2683 8.37586 11.268 8.38142 11.2674L8.48515 11.256L8.48515 11.256L8.48661 11.2558C8.51276 11.2526 8.53353 11.2491 8.55512 11.2431L8.55522 11.2435L8.56525 11.2399L8.63618 11.2145L8.63629 11.2148L8.64526 11.211L8.70633 11.1846L8.70638 11.1847L8.71224 11.1818L8.93224 11.0752L8.93277 11.0749ZM10.3021 10.4764C10.3023 10.4764 10.3025 10.4764 10.3027 10.4765L10.2934 10.4745C10.2962 10.4752 10.2992 10.4758 10.3021 10.4764Z" fill="black" stroke="black" stroke-width="0.3" stroke-linejoin="round"/>
<path d="M15.5637 7.32267L15.5637 7.32266C15.5161 7.45365 15.3708 7.52066 15.2403 7.47182L15.2929 7.33133L15.2403 7.47182L14.8335 7.31955C14.4773 7.18626 14.3163 6.79827 14.3972 6.45155C14.6627 5.31423 14.3477 4.25038 13.4711 3.49805C13.3711 3.41361 13.3572 3.26447 13.44 3.16291M15.5637 7.32267L13.44 3.16291M15.5637 7.32267L15.5641 7.32138C16.1485 5.66544 15.8512 3.97643 14.6771 2.75869C14.4004 2.47176 13.9549 2.53154 13.7188 2.82099L13.44 3.16291M15.5637 7.32267L13.44 3.16291" fill="black" stroke="black" stroke-width="0.3"/>
<path d="M12.5637 8.32267L12.5637 8.32266C12.5161 8.45365 12.3708 8.52066 12.2403 8.47182L12.2929 8.33133L12.2403 8.47182L11.8335 8.31955C11.4773 8.18626 11.3163 7.79827 11.3972 7.45155C11.6627 6.31423 11.3477 5.25038 10.4711 4.49805C10.3711 4.41361 10.3572 4.26447 10.44 4.16291M12.5637 8.32267L10.44 4.16291M12.5637 8.32267L12.5641 8.32138C13.1485 6.66544 12.8512 4.97643 11.6771 3.75869C11.4004 3.47176 10.9549 3.53154 10.7188 3.82099L10.44 4.16291M12.5637 8.32267L10.44 4.16291" fill="black" stroke="black" stroke-width="0.3"/>
</g>
<defs>
<clipPath id="clip0_104_885">
<rect width="16" height="16" fill="white" transform="translate(0.5 0.5)"/>
</clipPath>
</defs>
</svg>
